<?xml version="1.0" encoding="utf-8"?>
<!-- Generator: Adobe Illustrator 22.0.1, SVG Export Plug-In . SVG Version: 6.00 Build 0)  -->
<svg version="1.1" id="Layer_1" xmlns="http://www.w3.org/2000/svg" xmlns:xlink="http://www.w3.org/1999/xlink" x="0px" y="0px"
	 viewBox="0 0 800 600" style="enable-background:new 0 0 800 600;" xml:space="preserve">
<style type="text/css">
	.st0{fill:#003087;stroke:#000000;stroke-width:5.19;stroke-linejoin:round;}
	.st1{fill:#FFFFFF;stroke:#000000;stroke-width:5.15;stroke-linejoin:round;}
	.st2{fill:#FFFFFF;stroke:#000000;stroke-width:4.28;stroke-linejoin:round;}
</style>
<g>
	<path class="st0" d="M433.3,62.9c-8,0.1-16.3,3.8-24.1,8.9c0,0,0,0-0.1,0.1c-4,3-7.8,6.4-11.6,9.6c-0.2,0.2-0.4,0.4-0.6,0.6
		c-4.3,4-8.5,7.9-12.7,11.9c0,0,0,0,0,0c-1.3,1.4-2.1,2.3-3,3.3c-0.5,0.5-0.9,1.1-1.4,1.7c-3.3,3.8-6.1,8.1-9,12.2
		c-0.5,1-0.9,2.2-1.3,3.2c0,0.1-0.1,0.2-0.1,0.3c0.3,2.6,2,5,3.8,7c5.1,4,12.9,8,15.7,11.5c1.8,2.3,5.5,6.6,3.3,9.9
		c-1.9,2.9-6.7,0.1-9-0.7c-6.5-2.3-13.8-6-20.7-8.6c-2.1-0.8-3.3-0.7-4.7-0.5c-2,1.4-4.3,2.6-6,4.6c-5.2,6.3-9.9,12.8-14.2,19.8
		c-0.4,0.8-1.2,1.9-1.3,2c-0.8,0.9-1.3,1.9-2,2.8c0,0,0,0,0,0c-0.6,1.2-1.9,4.1-3.4,7.1c-0.9,2.4-1.3,4.9-0.4,6.8
		c3.8,7.5,19.8,10.1,27.2,14.3c0.5,0.2,1,0.4,1.6,0.6c2.8,1.2,9.2,4.4,7.7,8.5c-0.5,1.5-1.9,2.2-3.4,2.7c-3.6,2.8-8.8-0.2-12.7-1.5
		c-1.6-0.3-3.3-0.5-4.8-1.1c-3.2-1.2-8.3-3.8-12.9-5.6c-2.7-0.9-5.4-1.6-8-2c-2.4,0.1-4.7,0.6-6.8,1.5
		c-7.5,12.3-16.3,24.8-21.5,38.3c-5.7,15-16.6,38.1-29.3,48.5c-8.5,6.9-22,2.5-30.9,8.7c-6.6,4.6-10.4,26.7-18.1,27.4
		c-4.8,0.4-3.8-6.1-4-8.8c-0.4-6.3,4.8-20.2-3.8-23.6c-6.4-2.5-17.8-10.9-24.6-5.7c-4,3-14.1,22.9-18.2,21.4
		c-8.8-3.1,6.7-24.4-2.1-30c-8.4-5.3-40.2-21.2-48.7-12.9c-4.6,4.5-4.3,14.5-4.3,20.4l-0.4,0c0.1,1.4,0.3,2.8,0.3,4.2
		c0.8,11.9,2.4,23.5,4.7,35.4c1,5.1,2.6,12.4,7.8,14.8c1.6,0.8,5.6-1.8,6.9-2.6c4.1-2.7,22.1-16.1,25.8-6.7c1.3,3.2-1.8,5.2-3.5,7.4
		c-5.6,7.3-17.6,7.9-23.8,14.9c-4.7,5.4,5.8,19.3,8,24.5c1.6,3.7,4.3,13.4,8.4,15c9.5,3.6,19.5-4.6,27.4-8.8
		c3.9-2.1,8.2-3.5,12.1-5.6c2.5-1.4,13.5-6.4,15.9-2.9c3.2,4.6-5.7,9.5-8.2,11.7c-6.4,5.6-14.3,10.2-21.6,14.6
		c-4.2,2.6-11,4.6-13.7,9.1c-0.8,1.3-0.8,2.8-0.5,4.2c4.3,3.5,8.4,11.3,11.4,15c12,14.6,22.3,30.2,36.3,43.2
		c25.2,23.3,55.8,43.4,87.7,56.2c4.7,1.9,9.6,3.2,14.5,4.5l0.1-0.1c10.3,0.6,21.3,4.4,31.2,7c10.5,2.8,22,3.3,32.7,4.6
		c2.8,0.3,5.7,0.6,8.6,0.7c0,0,0.1,0,0.1,0c15.3-0.4,30.4-1.3,45.5-2.8c5.8-0.9,11.4-1.9,16.9-3c11.6-2.3,22.9-4,34.2-6.7
		c5.2-1.6,10.5-3.2,15.8-4.8c20.1-8,38.8-19,57-30.5c11.9-7.5,24.1-15.6,34.3-25.5c11-10.7,24.8-19.7,34-32.2
		c2.8-3.8,8.1-8.5,13.3-13.6c0.9-1.6,3.8-4.1,4.5-4.8c0.1-0.1,0.1-0.2,0.2-0.2c0.3-0.8,1.1-1.6,1.5-2c0.3-0.3,0.5-0.6,0.8-0.9
		c0.5-0.8,1.1-1.5,1.6-2.2l-0.1,0c0.3-0.5,0.7-0.9,1-1.3c0.4-0.6,0.8-1.1,1.2-1.7c0.7-1.1,1.4-2.3,1.9-3.2l0.2,0.1
		c1.2-2.6,1.8-5.3,1.6-7.9c-3-6.4-16.1-15-20.1-17.8c-3.4-2.3-14.2-14.8-10.6-19.5c2.4-3.1,9.9,1.3,12.3,2.5
		c6.9,3.4,22.6,16.4,30.5,13.8c4.6-1.5,8.7-10.3,10.6-14.5c4.5-10.1,9.2-19.9,10.1-31.1c0.1-1.1,0.2-2.4,0.2-3.7
		c-0.9-2.5-2.5-4.3-4.8-5.7c-4.5-2.1-10.5-2.6-14.9-4.5c-2-0.8-6.1-2.7-6-5.3c0,0,0-0.1,0-0.1c0-0.1-0.1-0.1-0.2-0.2
		c-1.2-3.5,5.8-3.4,7.5-3.1c2.1,0.3,4.4,0.8,6.7,1.1c5.9,0.1,11.4-0.4,16.3-5c2.5-2.3,1.7-11.3,1.9-14.3c0.3-5.1,1.6-15.2,1.6-24.6
		c-0.3-2.4-0.6-5-0.9-6.6c-0.8-4.3-1-9.9-4.7-12.7c-2.3-0.7-5.5,0.1-7.4,0.3c-7.4,0.8-15,2.2-22.4,2.3c-2.5,0-6.3,0.8-7.3,3.6
		c-0.5,1.4-0.6,2.9-0.8,4.3c-0.1,0.4-0.1,0.9-0.2,1.3c-0.4,5.3,0.4,10.9-0.7,15.9c-0.5,2.1-0.6,6-3.3,6.5c-0.6,0.1-1.1-0.1-1.7-0.3
		c-0.1,0-0.1,0-0.2,0c-0.4-0.1-0.7-0.2-1-0.5c-0.1,0-0.1-0.1-0.2-0.2c-1.8-1.4-3-4-3.6-5.9c-1.6-4.9-2-16.6-6.9-19.7
		c-2.3,0-4.2,0.6-6.6,0.7c-4.9,0.3-18.3,1.4-22.3,5.7c-2.2,11.1,1.6,21.5,0.9,32.6c-0.2,3.2,1.2,7.1-2.3,9c-4.2,2.3-7.3-3.8-8.6-6.4
		c-1-2-1.8-6-2.6-10.3c-0.9-3.5-1.8-6.9-2.1-10.7c0-0.4-0.1-1.1-0.1-1.6c-0.6-3.1-1.2-5.7-1.9-6.1c-3.2-2-6.6-1.5-10.1-2.3
		c-12.8-3.1-27-5.4-37.5-13.9c-9.3-7.6-15.8-17.3-21.8-27.5c-1.8-3.1-3.2-6.8-4.7-10.4c-1.6-2.5-3.2-5.3-4.3-8.2
		c-0.1-0.2-0.3-0.4-0.4-0.6h-0.1c0,0,0-0.1,0-0.1c-0.8-1.3-1.7-2.5-2.7-3.7c-0.4-0.4-0.7-0.9-1.2-1.3c-0.2-0.1-0.4-0.2-0.6-0.3
		c-9.1-3-17.8,8.3-26.9,10.8c-3.5,1-11.9,4.6-14.5-0.5c-2.6-5.2,5.6-9.2,8.9-11c7.2-3.7,18.1-7.2,23.6-14.2
		c3.8-7.6-0.2-13.7-1.2-22.5c0-0.2-0.1-0.5-0.1-0.7c-1.6-5.2-2.9-10.9-8.6-11.9c-5.8-0.1-13.7,2.9-18,4.2
		c-3.9,1.2-16.8,6.1-19.4,0.2c-1.5-3.4,3.9-7.5,6.3-8.8c7.2-4,15.1-4.7,22.8-6.3c1.6-0.7,3.1-1.6,4.1-3.2c0.2-4.3-1.8-12.3-2.3-14.2
		c-1.6-6.6-4.9-12.4-7.6-18.5c-1-2.2-2.1-5-3-7.5c-0.8-1.3-1.5-2.8-2-3.9c-1.8-3.7-4.1-7.1-5.9-10.8c-0.2-0.3-0.3-0.8-0.5-1.2
		c-0.1-0.2-0.4-0.4-0.5-0.6c-1.4-2.8-3.2-5.1-5.2-6.8c0,0-0.1-0.1-0.1-0.1c-0.8-0.7-1.6-1.2-2.5-1.8c-1.2-0.7-2.4-1.2-3.6-1.7
		c0,0-0.1,0-0.1-0.1c0,0,0,0,0,0c-1.2-0.4-2.3-0.7-3.5-0.9c-0.2,0-0.3-0.1-0.5-0.1c0,0-0.1,0-0.1,0c-0.9-0.1-1.8-0.2-2.7-0.2
		C434.4,63,433.8,62.9,433.3,62.9z"/>
	<path class="st1" d="M430.9,268.5c7.3-0.4,18.4,10.4,24.9,13.3c15.3,6.8,27.1,20,36.6,33.2c11,15.3,22.1,27.7,27.7,46.2
		c2,6.7,6.5,14.2,6.6,21.3c0.1,6.1-18.8,12.6-20,24.6c-1.4,13.3,26.4,23.7,21.5,33.8c-3.6,7.5-8.9,14.1-13.7,21
		c-8.3,11.9-15.3,24.9-26.2,33.9c-16.4,13.6-36.8,18.7-57.3,22c-36.3,5.9-72.2,5.6-104.8-12.5c-25.8-14.3-40.8-38.9-53.2-64.4
		c-0.9-1.9-1.8-4.5-2.3-6.6c-5.9-20.7,20.2-8.9,21.5-21.2c0.8-7.6-17-23.8-18.6-34.1c-3.3-21.1,8.9-34.2,17.3-51
		c0,0-0.1,0.4-0.1,0.3c0.3-1.6,1.5-3.2,2.3-4.7l0.1,0.1c2.4-3,4.6-6.1,6.9-9.2c0.8-1,2.1-2.5,2.6-3.1c12.9-15.2,28-27.2,45.7-36.4
		c0.4-0.3,0.9-0.5,1.3-0.8c0.1,0,0.1-0.1,0.2-0.1c3.9-2.3,8.5-3.7,12.9-5c2.1,0.2,4.4,0.3,6.2,1.1c2,0.8,3.7,2.2,5.5,3.5
		c4.8,6.4,8,13.9,12.3,20.7c1.6,2.5,2.9,6.3,5.4,8.2c1,1.3,2.2,2.4,3.8,2.6c6.5,1,24.3-21.2,27.7-26.3
		C425.3,276.1,428.8,268.6,430.9,268.5z"/>
	<path class="st2" d="M425.6,476.1c0,0.4-0.1,0.8-0.2,1.3c0-0.3,0.2-0.7,0.2-1C425.6,476.3,425.6,476.2,425.6,476.1z M425.7,477.3
		c-0.3,3.1-1.8,6.8-1,9.6c0.1,0.3,0.3,0.5,0.5,0.7c0-0.4-0.1-0.8-0.1-1.1c-0.1-1.1-0.1-2.3,0-3.5C425.3,481,425.5,479.1,425.7,477.3
		z M425.3,487.5c0.1,0.6,0.1,1.3,0.2,2c0.3-0.4,0.6-0.7,0.5-1.1C425.9,488,425.6,487.7,425.3,487.5z M479.7,411
		c-4.5,1.4-8.9,5.2-13.1,7.2l0.2,0.6c4.5-2.1,9.4-4.2,13.1-7.6L479.7,411z M481.8,415c-2.9,2.9-6.6,4.7-10.2,6.7l0.2,0.7
		C475.5,420.6,479.6,418.6,481.8,415z M445.5,337.5c-6,0-12.1,0.7-18.9,2.2l0.3,1.1c10.9-1.7,19.9-2.6,30.9-1
		c5.7,0.8,12.4,5.7,17.9,5.4l0.2-1c-0.8-1.7-9.8-4.1-11.6-4.5C457.5,338.3,451.5,337.5,445.5,337.5z M358.5,340.4
		c-2.2,0-4.5,0.1-5.6,0.1c-7.3-0.3-29.3,1.7-34.5,6.4l0.4,1.2c9.1-5.2,21.1-4.8,31.1-6.2c1.2-0.2,13,1.1,13.2,0.4l0.5-0.8
		C362.7,340.7,360.6,340.4,358.5,340.4z M433.7,382.5c-9.3,5.9-11.3,16.7,0.1,20.2l0-0.3c-2-1.4-4.5-1.7-6.3-3.9
		c-3.9-4.7,2.5-13.2,6.5-15.5L433.7,382.5z M318.2,380.9c-9.2,5.9-11.2,16.8,0.2,20.2l0-0.3c-2-1.4-4.5-1.7-6.3-3.8
		c-3.9-4.7,2.4-13.3,6.4-15.6L318.2,380.9z M453,393.5c-6.7,0.1-13.3,1.8-18.1,6.2l0.4,0.3c7.5-5.4,17.7-7,26.9-4.9
		c5.3,1.2,24.4,5.3,8.8,9.1c-1.9,0.5-3.8,0.4-5.7,0.7c-2.9,0.4-5.8,0.8-8.8,0.8c-5.4,0-10.1-1.7-15.2-2.1l-0.1,0.2
		c4.8,1.9,9,3,14.3,2.7c3.3-0.2,6.6-0.2,9.9-0.8c2.9-0.5,13.1-0.4,12.9-5.1c-0.1-2.6-8.5-4.5-10.3-5c-2.6-0.8-5.4-1.4-8.4-1.8
		C457.5,393.6,455.2,393.5,453,393.5z M452.5,395.1c-1.7,0.2-3.3,1.1-3.3,2.6c0,0.4,0.3,0.7,0.6,0.9c-0.4-0.4-0.8-0.7-1-1.1
		l-0.9-0.5c-0.9,6.7,11.6,7,12,0.6c0-0.7-0.4-0.9-1.1-1c-0.5-1.1-2.1-1.3-3.7-1.2C454.3,395.2,453.4,395,452.5,395.1z M337.6,391.5
		c-6.7,0.1-13.3,1.8-18.1,6.2l0.4,0.3c7.5-5.4,17.7-7,26.9-4.9c5.3,1.2,24.4,5.3,8.9,9.1c-1.9,0.5-3.8,0.4-5.7,0.6
		c-2.9,0.4-5.8,0.8-8.8,0.8c-5.4,0-10.1-1.7-15.2-2.1l-0.1,0.2c4.8,1.9,9,3.1,14.3,2.8c3.3-0.2,6.6-0.2,9.9-0.8
		c2.9-0.5,13.1-0.4,12.9-5.1c-0.1-2.6-8.5-4.5-10.3-5c-2.6-0.8-5.4-1.4-8.4-1.8C342.1,391.6,339.9,391.4,337.6,391.5z M337.2,393.1
		c-1.7,0.2-3.3,1.1-3.3,2.6c0,0.4,0.3,0.6,0.5,0.8c-0.3-0.4-0.8-0.6-0.9-1l-0.9-0.4c-0.9,6.7,11.6,7,12,0.6c0-0.7-0.4-0.9-1.1-1
		c-0.4-1.1-2-1.3-3.7-1.2C339,393.1,338.1,393,337.2,393.1z M479,407.4c-3.4-0.3-6.8,3.2-9.9,4.1c-7.3,2.2-15.2,1.5-22.5,0.6
		l-0.3,0.6c9.3,1.7,26.3,2.2,32.8-4.9L479,407.4z M363.6,405.3c-3.4-0.3-6.7,3.2-9.9,4.1c-7.3,2.2-15.2,1.5-22.5,0.5l-0.3,0.6
		c9.3,1.7,26.3,2.3,32.8-4.9L363.6,405.3z M364.4,409.4c-4.5,1.4-8.9,5.1-13.2,7.2l0.2,0.6c4.5-2.1,9.5-4.2,13.2-7.6L364.4,409.4z
		 M366.5,413.4c-2.9,2.8-6.7,4.7-10.3,6.7l0.2,0.7C360.2,418.9,364.3,417,366.5,413.4z M425.1,451.8l-0.4,0.4
		c0.3,1.4-0.7,4.6-0.4,5.2c1.4,2.8,0.3,6.3,0.2,9.5c0,3.5,1.1,6.1,1.1,9.3c0.4-3.2,0.5-6.3-0.1-9.2
		C424.5,462.4,426.6,455.8,425.1,451.8z M400.9,444.1c-2.1,0-4,0.2-5.5,0.4c-1.6,0.2-9.2,0.6-7.6,4.1c3.4,7.1,21,4.3,27.7,6.4
		c6.9,2.1,0.5,6.3,1,9.8c0.2,1.7,1.8,2,2.5,3.3c0.8,1.6-0.2,7-0.5,8.7c0.4-1.8,2-7,1.3-8.8c-0.5-1.2-2-1.8-2.3-3
		c-0.9-3.7,5.9-8.3-1.8-10.7c-4.8-1.5-25.9-0.6-26.8-5.8c-0.5-2.5,6-3,7.4-2.9c6.9,0.6,16.2-1,22.4,3.1l0.4-0.5
		c-2.4-2.2-6.8-3.2-11.4-3.7C405.3,444.1,403,444,400.9,444.1z M419.5,483l-0.7,0.2c0.8,3.7-1,6.4-2.1,9.2
		C418.1,490.2,420.7,488,419.5,483z M425.1,489.6c-0.3,0.3-0.6,0.6-0.7,1c-0.3,0.9,0,4.2,0.3,5.7l-0.1,0c-1.2,6.8-7.7,4.8-8.5-0.9
		c0,0.6-0.2,1.2,0,1.8c1.3,5.8,8.5,5,8.7-0.7c0,0.1,0,0.4,0.1,0.5l0.1,0C425.6,494.5,425.4,492,425.1,489.6z M416.2,495.4
		c0-0.4,0-0.8,0-1.2c0,0.2-0.2,0.4-0.2,0.6C416.1,495,416.2,495.2,416.2,495.4z"/>
</g>
</svg>
