<?xml version="1.0" encoding="utf-8"?>
<!-- Generator: Adobe Illustrator 22.0.1, SVG Export Plug-In . SVG Version: 6.00 Build 0)  -->
<svg version="1.1" id="Layer_1" xmlns="http://www.w3.org/2000/svg" xmlns:xlink="http://www.w3.org/1999/xlink" x="0px" y="0px"
	 viewBox="0 0 800 600" style="enable-background:new 0 0 800 600;" xml:space="preserve">
<style type="text/css">
	.st0{fill:#003087;stroke:#000000;stroke-width:5.19;stroke-linejoin:round;}
	.st1{fill:#FFFFFF;stroke:#000000;stroke-width:5.15;stroke-linejoin:round;}
	.st2{stroke:#000000;stroke-width:5.18;stroke-linejoin:round;}
</style>
<g>
	<path class="st0" d="M428.8,62.9c-8,0.1-16.3,3.7-24.1,8.9c0,0,0,0-0.1,0.1c-4,3-7.8,6.4-11.6,9.6c-0.2,0.2-0.4,0.4-0.6,0.6
		c-4.3,4-8.5,7.9-12.7,11.9c0,0,0,0,0,0c-1.3,1.4-2.1,2.3-3,3.3c-0.5,0.5-0.9,1.1-1.4,1.7c-3.3,3.8-6.1,8.1-9,12.2
		c-0.5,1-0.9,2.2-1.3,3.2c0,0.1,0,0.3-0.1,0.4c0.3,2.6,2,4.9,3.8,6.9c5.1,4,12.9,8,15.6,11.5c1.8,2.3,5.5,6.6,3.3,9.9
		c-1.9,2.9-6.7,0.1-9-0.7c-6.5-2.4-13.8-6-20.7-8.6c-2.1-0.8-3.3-0.7-4.7-0.5c-2,1.4-4.3,2.6-6,4.6c-5.2,6.3-9.9,12.8-14.2,19.7
		c-0.4,0.8-1.2,1.9-1.3,2c-0.8,0.9-1.3,1.9-2,2.8c0,0,0,0,0,0c-0.6,1.2-1.9,4.1-3.4,7.1c-0.9,2.4-1.4,4.9-0.4,6.8
		c3.8,7.5,19.8,10.1,27.2,14.4c0.5,0.2,1,0.4,1.6,0.6c2.8,1.2,9.1,4.4,7.7,8.5c-0.5,1.5-1.9,2.2-3.4,2.7c-3.6,2.8-8.8-0.2-12.7-1.5
		c-1.6-0.3-3.3-0.5-4.8-1.1c-3.2-1.2-8.3-3.8-12.9-5.6c-2.7-0.9-5.4-1.7-8-2c-2.4,0.1-4.7,0.6-6.8,1.5
		c-7.5,12.3-16.3,24.8-21.5,38.3c-5.8,15-16.7,38.1-29.4,48.5c-8.5,6.9-22,2.5-30.9,8.7c-6.6,4.5-10.4,26.7-18.1,27.4
		c-4.8,0.4-3.8-6.1-4-8.8c-0.4-6.3,4.8-20.2-3.8-23.6c-6.4-2.5-17.8-10.9-24.6-5.7c-4,3-14.1,22.8-18.2,21.4
		c-8.8-3.1,6.7-24.4-2.1-30c-8.4-5.3-40.1-21.2-48.6-13c-4.6,4.5-4.4,14.5-4.3,20.4l-0.4,0c0.1,1.4,0.2,2.8,0.3,4.2
		c0.8,11.9,2.4,23.5,4.7,35.4c1,5.1,2.6,12.4,7.8,14.8c1.6,0.8,5.6-1.8,6.9-2.6c4.1-2.7,22.1-16.1,25.9-6.6c1.3,3.2-1.8,5.2-3.5,7.4
		c-5.6,7.3-17.6,7.9-23.8,14.9c-4.7,5.3,5.8,19.3,8,24.5c1.5,3.7,4.2,13.4,8.4,15c9.5,3.6,19.5-4.6,27.4-8.8
		c3.9-2.1,8.2-3.5,12.1-5.6c2.5-1.4,13.5-6.4,15.9-2.9c3.2,4.6-5.7,9.5-8.2,11.7c-6.4,5.6-14.3,10.1-21.6,14.6
		c-4.2,2.6-11.1,4.6-13.7,9.1c-0.8,1.3-0.8,2.8-0.5,4.2c4.3,3.5,8.4,11.3,11.4,15c12,14.7,22.2,30.2,36.3,43.2
		c25.1,23.3,55.8,43.5,87.6,56.3c4.7,1.9,9.6,3.2,14.5,4.5l0.1-0.1c10.3,0.6,21.3,4.4,31.2,7c10.5,2.8,22,3.3,32.7,4.6
		c2.8,0.3,5.7,0.6,8.6,0.7c0,0,0,0,0.1,0c15.3-0.4,30.4-1.3,45.6-2.8c5.8-0.9,11.4-1.9,16.9-3c11.6-2.3,22.9-4,34.2-6.7
		c5.2-1.6,10.5-3.2,15.8-4.8c20.1-8,38.8-19,57.1-30.5c11.9-7.5,24.1-15.6,34.3-25.4c11-10.7,24.8-19.7,34-32.2
		c2.8-3.8,8.1-8.5,13.4-13.6c0.9-1.6,3.8-4.1,4.5-4.8c0.1-0.1,0.2-0.2,0.2-0.3c0.3-0.7,1.1-1.6,1.4-1.9c0.3-0.3,0.5-0.6,0.8-0.9
		c0.5-0.8,1.1-1.5,1.6-2.2l-0.1,0c0.3-0.5,0.7-0.9,1-1.3c0.4-0.6,0.8-1.1,1.2-1.7c0.7-1.1,1.4-2.3,1.9-3.2l0.2,0.1
		c1.2-2.6,1.8-5.3,1.6-7.9c-3-6.4-16.1-15-20.1-17.8c-3.4-2.3-14.2-14.8-10.5-19.5c2.4-3.1,9.9,1.3,12.3,2.5
		c6.9,3.5,22.5,16.4,30.5,13.8c4.6-1.5,8.7-10.3,10.6-14.5c4.5-10.1,9.2-19.9,10.1-31.1c0.1-1.1,0.2-2.4,0.2-3.7
		c-0.9-2.6-2.5-4.3-4.8-5.7c-4.5-2.1-10.5-2.7-14.9-4.5c-2-0.9-6.1-2.7-6-5.3c0,0,0-0.1,0-0.1c0-0.1-0.1-0.1-0.2-0.2
		c-1.2-3.5,5.8-3.3,7.5-3.1c2.1,0.3,4.4,0.8,6.7,1.1c5.9,0.1,11.4-0.4,16.3-5c2.5-2.3,1.8-11.3,1.9-14.3c0.3-5.1,1.6-15.2,1.7-24.6
		c-0.3-2.4-0.6-5-0.9-6.6c-0.8-4.3-1-9.9-4.6-12.7c-2.3-0.7-5.5,0.1-7.4,0.3c-7.4,0.8-15,2.2-22.4,2.3c-2.5,0-6.3,0.8-7.3,3.6
		c-0.5,1.4-0.7,2.9-0.8,4.3c-0.1,0.4-0.1,0.9-0.2,1.3c-0.4,5.3,0.4,10.9-0.7,15.9c-0.5,2.1-0.6,6-3.3,6.5c-0.6,0.1-1.1-0.1-1.7-0.3
		c-0.1,0-0.1,0-0.2,0c-0.4-0.1-0.7-0.2-1-0.5c-0.1,0-0.1-0.1-0.2-0.2c-1.8-1.4-3-4-3.6-5.9c-1.6-4.9-1.9-16.6-6.9-19.7
		c-2.3,0-4.2,0.6-6.6,0.7c-4.9,0.3-18.3,1.3-22.3,5.7c-2.2,11.1,1.6,21.5,0.9,32.6c-0.2,3.2,1.2,7.1-2.3,9c-4.2,2.3-7.2-3.8-8.6-6.4
		c-1-2-1.8-6-2.6-10.3c-0.9-3.5-1.8-6.9-2.1-10.7c0-0.4-0.1-1.1-0.1-1.6c-0.6-3.1-1.2-5.7-1.9-6.1c-3.2-2-6.6-1.5-10.1-2.3
		c-12.8-3.1-27-5.4-37.5-14c-9.3-7.6-15.8-17.3-21.8-27.6c-1.8-3.1-3.2-6.8-4.7-10.4c-1.6-2.5-3.2-5.3-4.3-8.2
		c-0.1-0.2-0.3-0.4-0.4-0.6h-0.1c0,0,0-0.1,0-0.1c-0.8-1.3-1.7-2.5-2.7-3.7c-0.4-0.4-0.7-0.9-1.2-1.3c-0.2-0.1-0.4-0.2-0.6-0.3
		c-9.1-3-17.8,8.2-26.9,10.8c-3.5,1-11.9,4.6-14.5-0.5c-2.6-5.2,5.6-9.2,8.9-11c7.2-3.7,18.2-7.2,23.6-14.2
		c3.8-7.6-0.2-13.7-1.2-22.5c0-0.2-0.1-0.5-0.1-0.7c-1.6-5.2-2.9-11-8.6-11.9c-5.8-0.2-13.7,2.9-18,4.2c-3.9,1.2-16.9,6.1-19.4,0.2
		c-1.5-3.4,3.9-7.5,6.4-8.8c7.2-4,15.1-4.7,22.8-6.3c1.6-0.7,3.1-1.6,4.1-3.2c0.2-4.3-1.8-12.3-2.3-14.2c-1.6-6.6-4.9-12.4-7.5-18.5
		c-1-2.2-2-5-3-7.5c-0.8-1.3-1.5-2.8-2-3.9c-1.8-3.7-4.1-7.1-5.9-10.8c-0.2-0.3-0.3-0.8-0.5-1.2c-0.1-0.2-0.4-0.4-0.5-0.6
		c-1.4-2.8-3.1-5.1-5.2-6.8c0,0-0.1-0.1-0.1-0.1c-0.8-0.7-1.6-1.2-2.5-1.8c-1.2-0.7-2.4-1.2-3.6-1.7c0,0-0.1,0-0.1-0.1c0,0,0,0,0,0
		c-1.2-0.4-2.3-0.7-3.5-0.9c-0.2,0-0.3-0.1-0.5-0.1c0,0-0.1,0-0.1,0c-0.9-0.1-1.8-0.2-2.7-0.2C429.9,63,429.3,62.9,428.8,62.9z"/>
	<path class="st1" d="M426.1,268.9c7.3-0.4,18.4,10.4,24.9,13.3c15.3,6.8,27.1,20,36.6,33.3c10.9,15.3,22.1,27.8,27.6,46.2
		c2,6.7,6.5,14.2,6.5,21.3c0.1,6.1-18.8,12.6-20.1,24.5c-1.4,13.3,26.4,23.7,21.5,33.8c-3.6,7.5-8.9,14.1-13.7,21
		c-8.3,11.9-15.3,24.8-26.2,33.8c-16.5,13.5-36.8,18.6-57.3,21.9c-36.3,5.8-72.2,5.6-104.8-12.6c-25.7-14.4-40.8-38.9-53.1-64.5
		c-0.9-1.9-1.8-4.5-2.3-6.6c-5.8-20.7,20.2-8.8,21.6-21.2c0.8-7.6-17-23.8-18.6-34.1c-3.3-21.1,8.9-34.2,17.4-51
		c0,0-0.1,0.4-0.1,0.3c0.3-1.6,1.5-3.2,2.3-4.7l0.1,0.1c2.4-3,4.6-6.1,6.9-9.2c0.8-1,2.1-2.5,2.6-3.1c12.9-15.2,28-27.2,45.8-36.3
		c0.4-0.3,0.9-0.5,1.3-0.7c0.1,0,0.1-0.1,0.2-0.1c3.9-2.2,8.5-3.6,12.9-5c2.1,0.2,4.4,0.3,6.2,1.1c2,0.8,3.7,2.2,5.5,3.5
		c4.8,6.4,8,13.9,12.3,20.7c1.6,2.5,2.9,6.3,5.4,8.3c1,1.3,2.2,2.4,3.8,2.6c6.5,1,24.3-21.2,27.7-26.3
		C420.6,276.5,424.1,269,426.1,268.9z"/>
	<path class="st2" d="M328.7,424.5c-12.8-9.1-3.2-32.6-1.8-45c0.4-3.2-5.2-18,0.5-17.8c4.2,0.2,4.4,6.5,7.4,8.1
		c5.5,2.9,9.7-1.6,15.5,6.1c1.9,2.5-0.3,8.4-1.6,10.8c-3.2,6.2-4.3,16.3-4.3,23.3c0,3.6,0.2,9.6-2.2,12.6
		c-4.1,5.2-17.9,4.9-16.8-3.8l0.5-0.2c1.6,1.3,2.3,3.5,4.3,4.4c15.4,7.2,11.4-17.5,13.4-25c1.2-4.5,6.9-18.9,3.8-22
		c-4.2-4.2-9.1-1.7-13.5-4.7c-2.2-1.5-4-7.9-6.7-7.7c-1.1,0.1-0.7,4-0.7,4.6c0,4.2,2.9,8.1,1.8,12.4c-2.8,11.4-8.3,34.3,0.7,43.5
		 M445.8,427.8c-14.3-11.2-4.4-32.7-2.8-47c0.4-3.4-5-16,1-16.7c4.8-0.5,3.7,7.4,7.2,8.2c5.6,1.4,9.9-3.2,14.7,3.8
		c3,4.4,0.6,9.5-0.3,14.1c-0.9,4.4-2.3,8.7-2.7,13.2c-0.8,7.3,0.5,15.9-3.8,22.6c-3,4.7-16.9,4.7-15.1-1.6l0.5-0.3
		c2.2,1.1,3.7,3.2,6.4,3.4c12.1,0.9,9.4-23.6,11-31.1c1.1-4.8,6-15.3,1.6-19.6c-4-4-7.5-0.9-12-2.1c-4.5-1.3-4.7-7.5-6.9-8.4
		c-1.4-0.5-1.3,3.6-1.2,4.2c0.7,4.6,2.1,8.6,1.7,13.3c-0.3,3.1-1.7,6.1-2.4,9c-2.8,11.3-4,24.7,3.8,34.2 M446.7,428.5
		c-1.7-0.8-3.9-2.4-4.5-4.3l0,0c1.6,1.3,2.6,3.2,4.5,4 M445.5,427.9c-3.4-2.1-7.2-8.2-6.8-12.3l0.1,0c1.1,4.4,2.9,9.4,6.8,12.1
		 M429.5,456c2.6-1.5,5.7-3.3,6.8-6.2c1-2.8-0.6-6.3-4-5.4c-6.7,1.8-12.1,7.6-18.1,10.9c-7.4,4.1-15.7,5.2-24,4.4
		c-6-0.5-12.9-2-17.9-5.5c-4-2.8-7.2-8-11.9-9.6c-4.9-1.7-11.9-4.2-11.6,3.9c0.3,7.7,13.9,12.8,20,14.7c15.7,4.9,34.7,4.5,50.1-1.3
		c5.9-2.2,15.1-6.3,18.2-12.3l0.1,0.1c-1.4,7.1-11.9,11.5-17.8,13.6c-16.3,6.1-39,7.2-55-0.3c-6.1-2.9-17.6-6.4-17.4-14.8
		c0.2-6.5,5.7-9.1,11.3-6.6c6.1,2.7,9.5,7.2,14.8,11.1c4.7,3.5,11.3,4.9,17,5.5c8.1,0.9,16-0.3,23.3-4.1c6.3-3.3,11.8-9.3,18.7-11
		c4.2-1,6.1,3.5,4.8,6.9c-1.2,3.2-4.5,4.6-7.3,6.3"/>
</g>
</svg>
