<?xml version="1.0" encoding="utf-8"?>
<!-- Generator: Adobe Illustrator 22.0.1, SVG Export Plug-In . SVG Version: 6.00 Build 0)  -->
<svg version="1.1" id="Layer_1" xmlns="http://www.w3.org/2000/svg" xmlns:xlink="http://www.w3.org/1999/xlink" x="0px" y="0px"
	 viewBox="0 0 800 600" style="enable-background:new 0 0 800 600;" xml:space="preserve">
<style type="text/css">
	.st0{fill:#003087;stroke:#000000;stroke-width:5.19;stroke-linejoin:round;}
	.st1{fill:#FFFFFF;stroke:#000000;stroke-width:5.15;stroke-linejoin:round;}
	.st2{fill:none;stroke:#000000;stroke-width:5.12;stroke-linejoin:round;}
</style>
<g>
	<path class="st0" d="M448.6,56.2c-8-0.2-16.4,3.2-24.4,8c0,0,0,0-0.1,0.1c-4.1,2.9-8,6.1-12,9.2c-0.2,0.2-0.4,0.4-0.6,0.6
		c-4.4,3.8-8.8,7.6-13.1,11.4c0,0,0,0,0,0c-1.4,1.4-2.1,2.2-3.1,3.2c-0.5,0.5-0.9,1.1-1.4,1.6c-3.4,3.7-6.4,7.9-9.4,11.9
		c-0.6,1-1,2.1-1.5,3.2c0,0.1-0.1,0.2-0.1,0.3c0.2,2.6,1.8,5.1,3.6,7.1c5,4.1,12.6,8.4,15.2,12.1c1.7,2.4,5.3,6.8,3,10
		c-2,2.8-6.7-0.1-9-1c-6.4-2.6-13.6-6.5-20.4-9.3c-2-0.9-3.3-0.8-4.6-0.6c-2.1,1.3-4.4,2.4-6.2,4.4c-5.4,6.1-10.3,12.4-14.9,19.2
		c-0.5,0.8-1.2,1.8-1.4,2c-0.8,0.9-1.4,1.8-2.1,2.7c0,0,0,0,0,0c-0.7,1.2-2.1,4.1-3.7,6.9c-1,2.4-1.5,4.8-0.6,6.8
		c3.5,7.6,19.4,10.8,26.7,15.3c0.5,0.2,1,0.4,1.5,0.7c2.7,1.3,9,4.7,7.4,8.8c-0.6,1.5-1.9,2.2-3.5,2.6c-3.7,2.6-8.8-0.5-12.6-2
		c-1.6-0.3-3.3-0.6-4.8-1.2c-3.1-1.3-8.1-4-12.7-6c-2.7-1-5.3-1.8-7.9-2.3c-2.4,0-4.7,0.4-6.8,1.3c-7.9,12.1-17.2,24.2-22.8,37.5
		c-6.3,14.8-18,37.5-31,47.4c-8.7,6.6-22,1.7-31.2,7.6c-6.7,4.3-11.4,26.3-19.1,26.7c-4.8,0.3-3.6-6.2-3.7-9c-0.2-6.3,5.5-20-3-23.7
		c-6.3-2.7-17.4-11.5-24.4-6.6c-4.1,2.9-14.9,22.3-18.9,20.7c-8.7-3.4,7.6-24.2-1-30c-8.2-5.5-39.4-22.6-48.2-14.7
		c-4.7,4.3-4.9,14.3-5,20.2l-0.4,0c0.1,1.4,0.2,2.8,0.2,4.2c0.4,12,1.5,23.6,3.4,35.6c0.8,5.1,2.1,12.5,7.2,15
		c1.6,0.8,5.7-1.6,7-2.3c4.2-2.5,22.7-15.3,26.1-5.7c1.2,3.3-2,5.1-3.8,7.3c-5.9,7.1-17.9,7.2-24.3,14c-4.9,5.2,5.1,19.5,7.1,24.7
		c1.4,3.8,3.8,13.5,7.9,15.3c9.4,4,19.7-3.9,27.7-7.8c4-2,8.3-3.2,12.3-5.2c2.6-1.3,13.8-6,16-2.4c3,4.7-6.1,9.3-8.6,11.4
		c-6.6,5.4-14.7,9.6-22.1,13.8c-4.3,2.4-11.2,4.2-14,8.6c-0.8,1.3-0.9,2.7-0.6,4.2c4.1,3.6,8,11.6,10.9,15.4
		c11.4,15.1,21.1,30.9,34.7,44.4c24.3,24.2,54.2,45.4,85.6,59.3c4.6,2.1,9.5,3.5,14.4,5l0.1-0.1c10.3,1,21.1,5.1,31,8.1
		c10.4,3.2,21.8,4.1,32.5,5.7c2.8,0.4,5.7,0.8,8.6,1c0,0,0.1,0,0.1,0c15.3,0.1,30.4-0.2,45.6-1.2c5.8-0.7,11.5-1.5,17-2.4
		c11.7-1.9,23.1-3.2,34.4-5.4c5.3-1.4,10.6-2.8,15.9-4.2c20.3-7.3,39.4-17.6,58.1-28.5c12.2-7.1,24.7-14.7,35.2-24.2
		c11.4-10.3,25.5-18.8,35.1-30.9c2.9-3.7,8.4-8.2,13.8-13.1c1-1.5,3.9-4,4.6-4.6c0.1-0.1,0.1-0.2,0.2-0.2c0.4-0.8,1.2-1.6,1.5-1.9
		c0.3-0.3,0.6-0.6,0.8-0.9c0.5-0.7,1.1-1.5,1.6-2.2l-0.1,0c0.3-0.5,0.7-0.8,1.1-1.3c0.4-0.6,0.8-1.1,1.3-1.6
		c0.7-1.1,1.4-2.2,2.1-3.2l0.2,0.1c1.3-2.6,2-5.2,1.8-7.9c-2.7-6.5-15.6-15.5-19.5-18.5c-3.3-2.5-13.6-15.3-9.8-19.9
		c2.5-3,9.8,1.7,12.2,3c6.7,3.7,21.9,17.2,30,14.8c4.6-1.4,9.1-10,11.1-14.1c4.9-9.9,9.9-19.6,11.2-30.7c0.1-1.1,0.3-2.4,0.4-3.7
		c-0.8-2.6-2.3-4.4-4.5-5.9c-4.4-2.2-10.4-3-14.7-5.1c-2-0.9-6-2.9-5.8-5.5c0,0,0-0.1,0-0.1c0-0.1-0.1-0.1-0.1-0.2
		c-1.1-3.6,5.9-3.1,7.6-2.8c2.1,0.4,4.4,0.9,6.6,1.3c5.9,0.3,11.4,0,16.5-4.4c2.6-2.2,2.1-11.2,2.5-14.3c0.5-5,2.1-15.2,2.5-24.5
		c-0.2-2.4-0.4-5-0.7-6.7c-0.7-4.3-0.6-9.9-4.2-12.8c-2.3-0.8-5.5-0.1-7.4,0c-7.4,0.5-15.1,1.6-22.5,1.5c-2.5-0.1-6.4,0.6-7.4,3.4
		c-0.5,1.4-0.7,2.8-1,4.3c-0.1,0.4-0.1,0.9-0.2,1.3c-0.5,5.2,0,10.9-1.3,15.9c-0.5,2.1-0.8,6-3.5,6.4c-0.6,0.1-1.1-0.2-1.7-0.3
		c-0.1,0-0.2,0-0.2,0c-0.4-0.1-0.7-0.3-1-0.5c-0.1,0-0.1-0.1-0.1-0.2c-1.8-1.4-2.8-4.1-3.4-6c-1.4-5-1.3-16.7-6.2-20
		c-2.2-0.1-4.2,0.4-6.6,0.5c-4.9,0.1-18.4,0.7-22.5,4.9c-2.6,11,0.9,21.6-0.3,32.6c-0.3,3.2,1,7.1-2.6,8.9c-4.3,2.2-7.1-4.1-8.3-6.7
		c-0.9-2-1.6-6.1-2.2-10.4c-0.8-3.5-1.5-7-1.7-10.7c0-0.4-0.1-1.1-0.1-1.6c-0.5-3.2-1-5.7-1.7-6.2c-3.1-2.1-6.6-1.7-10-2.7
		c-12.6-3.5-26.7-6.3-36.9-15.3c-9-7.9-15.1-17.8-20.8-28.3c-1.7-3.2-3-6.9-4.3-10.6c-1.5-2.5-3-5.4-4-8.3c-0.1-0.2-0.3-0.4-0.4-0.6
		l-0.1,0c0,0,0-0.1,0-0.1c-0.8-1.3-1.6-2.5-2.6-3.7c-0.4-0.4-0.7-0.9-1.1-1.3c-0.2-0.1-0.4-0.2-0.6-0.3c-9-3.3-18.1,7.6-27.3,9.8
		c-3.5,0.8-12,4.2-14.5-1.1c-2.5-5.2,5.9-9,9.3-10.6c7.3-3.4,18.4-6.5,24.1-13.3c4-7.5,0.3-13.7-0.4-22.5c0-0.2-0.1-0.5-0.1-0.7
		c-1.5-5.2-2.5-11-8.2-12.2c-5.8-0.4-13.8,2.4-18.1,3.6c-3.9,1.1-17.1,5.5-19.4-0.5c-1.3-3.4,4.2-7.4,6.7-8.6
		c7.3-3.7,15.3-4.1,23-5.5c1.6-0.6,3.1-1.5,4.2-3.1c0.4-4.3-1.4-12.4-1.8-14.3c-1.3-6.6-4.5-12.5-6.9-18.8c-0.9-2.3-1.9-5-2.8-7.6
		c-0.8-1.3-1.4-2.8-1.9-3.9c-1.6-3.8-3.9-7.2-5.5-11c-0.1-0.3-0.3-0.8-0.4-1.2c-0.1-0.2-0.3-0.4-0.5-0.6c-1.3-2.9-3-5.2-4.9-7
		c0,0-0.1-0.1-0.1-0.1c-0.8-0.7-1.6-1.3-2.4-1.8c-1.1-0.7-2.3-1.3-3.5-1.8c0,0-0.1,0-0.1-0.1c0,0,0,0,0,0c-1.1-0.5-2.3-0.8-3.5-1.1
		c-0.2,0-0.3-0.1-0.5-0.1c0,0-0.1,0-0.1,0c-0.9-0.2-1.8-0.2-2.7-0.3C449.7,56.3,449.2,56.3,448.6,56.2z"/>
	<path class="st1" d="M438.8,261.6c7.3-0.1,18,11.1,24.4,14.2c15.1,7.3,26.4,21,35.4,34.5c10.4,15.6,21.1,28.5,26,47.2
		c1.8,6.8,5.9,14.4,5.8,21.5c-0.1,6.1-19.2,11.9-20.9,23.8c-1.9,13.3,25.5,24.6,20.3,34.5c-3.9,7.4-9.4,13.8-14.4,20.5
		c-8.8,11.6-16.1,24.3-27.4,32.9c-16.9,13-37.5,17.3-58.1,19.9c-36.5,4.6-72.4,3-104.3-16.3C300.3,479,286.2,454,274.8,428
		c-0.9-2-1.6-4.6-2.1-6.6c-5.1-20.9,20.5-8.1,22.3-20.4c1.1-7.6-16.1-24.4-17.4-34.7c-2.5-21.2,10.1-33.8,19.2-50.3
		c0,0-0.1,0.4-0.1,0.3c0.3-1.6,1.6-3.1,2.5-4.6l0.1,0.1c2.5-3,4.8-6,7.2-9c0.9-1,2.2-2.5,2.7-3c13.5-14.7,28.9-26.2,47-34.7
		c0.4-0.3,0.9-0.5,1.4-0.7c0.1,0,0.1-0.1,0.2-0.1c4-2.1,8.6-3.3,13-4.5c2.1,0.3,4.4,0.5,6.1,1.3c1.9,0.9,3.6,2.3,5.3,3.7
		c4.6,6.6,7.5,14.2,11.6,21.1c1.5,2.6,2.7,6.4,5.1,8.4c1,1.3,2.1,2.5,3.7,2.8c6.5,1.2,25.1-20.3,28.6-25.3
		C433,269,436.7,261.6,438.8,261.6z"/>
	<path class="st2" d="M332.9,358.9c-5.7,0,0.5,14.5,0.2,17.8c-0.8,11.3-7.9,32,0.6,42.1c2.3,5.7,13.2,4.9,16.6,0.2
		c2.2-3.1,1.8-9,1.6-12.6c-0.3-6.9,0.4-17.1,3.3-23.4c1.1-2.4,3.1-8.5,1.1-10.9c-6-7.4-10.1-2.8-15.7-5.4
		C337.6,365.2,337.1,358.9,332.9,358.9z M332.8,360.6c2.7-0.3,4.8,6,7,7.4c4.6,2.7,9.3,0,13.7,4.1c3.2,2.9-1.8,17.6-2.9,22.1
		c-1.7,7.6,3.3,32.1-12.3,25.6c-1.9-0.8-2.8-2.9-4.4-4.1c-4.6-10.6-1.1-28.5,0.8-38.2c0.9-4.4-2.1-8.1-2.3-12.3
		C332.3,364.7,331.6,360.8,332.8,360.6z M449.4,356.3c-5.9,0.9,0,13.3-0.2,16.7c-0.7,10.1-5.2,23.9-2.7,35l-0.1,0
		c-0.2,3.4,2.7,8.1,5.6,10.7c0.1,0.1,0.1,0.2,0.2,0.2c2.1,3.7,12.5,2.7,14.9-1.4c4-6.8,2.3-15.4,2.8-22.7c0.3-4.4,1.4-8.9,2.1-13.3
		c0.7-4.6,2.9-9.8-0.3-14.1c-5.1-6.8-9.2-2.1-14.8-3.2C453.4,363.5,454.1,355.6,449.4,356.3z M450,358.5c2.3,0.7,2.7,7,7.3,8.1
		c4.6,1.1,7.9-2.3,12.1,1.6c4.5,4.2,0.1,14.8-0.8,19.7c-1.3,7.6,2.4,31.9-9.7,31.6c-2.6-0.1-4.2-2-6.3-3c-6-9-5.4-20.9-3.3-31.3
		c0.6-3,1.8-6,2-9.1c0.3-4.8-1.4-8.7-2.3-13.3C448.9,362.2,448.7,358,450,358.5z M408,444.9c-10.2,0.3-20.3,2.2-28.8,5.4
		c-6.1,2.3-17,6.8-18.4,13.9l0.1,0.1c0,0,0.1-0.1,0.1-0.1c-1.1,3.3,0.9,7.5,5.2,6.5c7.3-1.7,12.9-7.9,19.4-11.2
		c7.6-3.9,15.7-5.2,24.3-4.4c6,0.6,12.9,1.9,17.9,5.3c5.5,3.8,9.2,8.3,15.6,10.8c6,2.4,11.7-0.2,11.8-6.8c0.1-8.4-12-11.7-18.4-14.5
		C428.3,446.1,418.1,444.7,408,444.9z"/>
</g>
<g>
</g>
<g>
</g>
<g>
</g>
<g>
</g>
<g>
</g>
<g>
</g>
<g>
</g>
<g>
</g>
<g>
</g>
<g>
</g>
<g>
</g>
<g>
</g>
<g>
</g>
<g>
</g>
<g>
</g>
</svg>
