<?xml version="1.0" encoding="utf-8"?>
<!-- Generator: Adobe Illustrator 22.0.1, SVG Export Plug-In . SVG Version: 6.00 Build 0)  -->
<svg version="1.1" id="Layer_1" xmlns="http://www.w3.org/2000/svg" xmlns:xlink="http://www.w3.org/1999/xlink" x="0px" y="0px"
	 viewBox="0 0 800 600" style="enable-background:new 0 0 800 600;" xml:space="preserve">
<style type="text/css">
	.st0{fill:#003087;stroke:#000000;stroke-width:5.19;stroke-linejoin:round;}
	.st1{fill:#FFFFFF;stroke:#000000;stroke-width:5.15;stroke-linejoin:round;}
	.st2{stroke:#000000;stroke-width:5.19;stroke-linejoin:round;}
</style>
<g>
	<path class="st0" d="M421.6,42.7c-8,0.3-16.2,4.2-23.8,9.6c0,0,0,0-0.1,0.1c-3.9,3.1-7.6,6.6-11.4,9.9c-0.2,0.2-0.4,0.4-0.6,0.6
		c-4.1,4.1-8.3,8.2-12.4,12.3c0,0,0,0,0,0c-1.3,1.5-2,2.3-2.9,3.4c-0.5,0.6-0.9,1.1-1.3,1.7c-3.2,3.9-5.9,8.2-8.7,12.5
		c-0.5,1-0.9,2.2-1.2,3.3c0,0.1-0.1,0.2-0.1,0.3c0.4,2.6,2.1,4.9,4,6.9c5.2,3.8,13.1,7.6,16,11.1c1.8,2.2,5.7,6.5,3.6,9.8
		c-1.8,2.9-6.7,0.3-9-0.5c-6.5-2.2-14-5.6-20.9-8c-2.1-0.7-3.3-0.6-4.7-0.3c-2,1.5-4.3,2.7-5.9,4.8c-5,6.4-9.5,13.1-13.6,20.1
		c-0.4,0.8-1.1,1.9-1.3,2.1c-0.8,1-1.3,1.9-1.9,2.8c0,0,0,0,0,0c-0.6,1.2-1.8,4.2-3.2,7.2c-0.8,2.4-1.2,4.9-0.2,6.8
		c4,7.4,20,9.6,27.6,13.6c0.5,0.2,1.1,0.4,1.6,0.6c2.8,1.1,9.3,4.2,8,8.3c-0.5,1.5-1.8,2.3-3.3,2.8c-3.5,2.9-8.8,0.1-12.7-1.2
		c-1.6-0.2-3.3-0.4-4.8-0.9c-3.2-1.1-8.4-3.5-13.1-5.2c-2.7-0.8-5.5-1.5-8-1.7c-2.5,0.1-4.7,0.7-6.7,1.7
		c-7.1,12.5-15.6,25.3-20.4,38.9c-5.3,15.2-15.6,38.6-27.9,49.3c-8.3,7.1-21.9,3.1-30.6,9.6c-6.4,4.7-9.6,27-17.3,27.9
		c-4.8,0.6-4-6-4.3-8.7c-0.6-6.3,4.2-20.3-4.5-23.4c-6.5-2.3-18.1-10.4-24.8-5c-3.9,3.1-13.5,23.2-17.6,21.9c-8.8-2.9,6-24.6-3-29.9
		c-8.5-5-40.7-20-49-11.6c-4.5,4.6-3.9,14.6-3.7,20.5l-0.4,0c0.1,1.4,0.3,2.8,0.5,4.1c1.2,11.9,3.1,23.4,5.7,35.3
		c1.1,5.1,2.9,12.3,8.2,14.6c1.7,0.7,5.6-1.9,6.8-2.8c4-2.8,21.6-16.8,25.6-7.4c1.4,3.2-1.6,5.2-3.3,7.5
		c-5.4,7.4-17.4,8.4-23.3,15.6c-4.6,5.5,6.4,19.1,8.7,24.2c1.7,3.7,4.6,13.3,8.9,14.7c9.6,3.4,19.4-5.1,27.2-9.6
		c3.9-2.2,8.1-3.7,11.9-5.9c2.5-1.5,13.3-6.8,15.8-3.4c3.3,4.5-5.4,9.7-7.9,11.9c-6.2,5.8-14,10.6-21.1,15.2
		c-4.2,2.7-10.9,4.9-13.5,9.5c-0.8,1.4-0.7,2.8-0.4,4.2c4.4,3.3,8.7,11.1,11.9,14.7c12.4,14.3,23.1,29.5,37.5,42.1
		c25.8,22.6,57,41.8,89.2,53.7c4.8,1.8,9.7,2.9,14.7,4.1l0.1-0.1c10.3,0.3,21.4,3.8,31.4,6.1c10.6,2.5,22,2.7,32.8,3.6
		c2.8,0.3,5.7,0.4,8.6,0.5c0,0,0.1,0,0.1,0c15.3-0.9,30.3-2.2,45.4-4.1c5.7-1,11.4-2.2,16.8-3.4c11.5-2.6,22.8-4.7,34-7.7
		c5.2-1.7,10.4-3.5,15.6-5.3c19.8-8.6,38.2-20.1,56.2-32.1c11.7-7.9,23.7-16.3,33.5-26.4c10.7-11,24.2-20.4,33.1-33.1
		c2.7-3.9,7.9-8.7,13-14c0.9-1.6,3.6-4.2,4.3-4.9c0.1-0.1,0.1-0.2,0.2-0.3c0.3-0.8,1.1-1.6,1.4-2c0.3-0.3,0.5-0.6,0.8-0.9
		c0.5-0.8,1-1.5,1.5-2.3l-0.1,0c0.3-0.5,0.6-0.9,1-1.4c0.4-0.6,0.7-1.1,1.1-1.7c0.6-1.1,1.3-2.3,1.8-3.3l0.3,0.1
		c1.1-2.7,1.7-5.4,1.3-8c-3.2-6.4-16.6-14.5-20.6-17.2c-3.4-2.3-14.6-14.4-11.1-19.2c2.3-3.2,9.9,1.1,12.4,2.2
		c7,3.2,23,15.8,30.8,12.9c4.5-1.7,8.4-10.6,10.1-14.8c4.2-10.2,8.7-20.2,9.2-31.3c0.1-1.1,0.1-2.4,0.1-3.7
		c-0.9-2.5-2.6-4.2-4.9-5.6c-4.5-1.9-10.5-2.4-15-4.1c-2-0.8-6.2-2.5-6.1-5.1c0,0,0-0.1,0-0.1c0-0.1-0.1-0.1-0.2-0.2
		c-1.3-3.5,5.7-3.5,7.4-3.3c2.1,0.3,4.4,0.6,6.7,0.9c5.9-0.1,11.4-0.7,16.2-5.4c2.4-2.4,1.4-11.3,1.5-14.4
		c0.2-5.1,1.2-15.3,0.9-24.6c-0.4-2.4-0.7-5-1.1-6.6c-0.9-4.2-1.3-9.8-5-12.5c-2.3-0.6-5.4,0.2-7.4,0.5c-7.4,1-14.9,2.6-22.4,2.9
		c-2.5,0.1-6.3,1-7.2,3.8c-0.4,1.4-0.6,2.9-0.7,4.4c0,0.4-0.1,0.9-0.1,1.3c-0.2,5.3,0.7,10.9-0.3,15.9c-0.4,2.1-0.4,6.1-3.1,6.6
		c-0.6,0.1-1.1-0.1-1.7-0.2c-0.1,0-0.1,0-0.2,0c-0.4-0.1-0.7-0.2-1-0.4c-0.1,0-0.1-0.1-0.2-0.1c-1.9-1.3-3.1-3.9-3.8-5.8
		c-1.8-4.9-2.4-16.6-7.5-19.5c-2.3,0.1-4.2,0.7-6.6,0.9c-4.9,0.4-18.3,1.9-22.1,6.3c-1.9,11.1,2.2,21.5,1.8,32.6
		c-0.1,3.2,1.4,7-2.1,9.1c-4.1,2.4-7.4-3.6-8.7-6.2c-1.1-2-2-6-2.9-10.3c-1-3.4-2-6.9-2.4-10.6c-0.1-0.4-0.1-1.1-0.2-1.6
		c-0.7-3.1-1.4-5.6-2.1-6c-3.3-1.9-6.7-1.3-10.1-2c-12.8-2.7-27.1-4.6-37.9-12.9c-9.5-7.3-16.3-16.8-22.5-26.9
		c-1.9-3.1-3.4-6.7-5-10.3c-1.7-2.4-3.3-5.2-4.5-8c-0.1-0.2-0.3-0.4-0.4-0.6l-0.1,0c0,0,0-0.1,0-0.1c-0.8-1.2-1.8-2.4-2.8-3.6
		c-0.4-0.4-0.7-0.9-1.2-1.2c-0.2-0.1-0.4-0.2-0.6-0.3c-9.2-2.7-17.6,8.8-26.6,11.5c-3.4,1.1-11.7,4.9-14.5-0.1
		c-2.8-5.1,5.3-9.4,8.6-11.2c7.1-3.9,17.9-7.7,23.2-14.8c3.5-7.7-0.6-13.7-1.9-22.4c0-0.2-0.1-0.5-0.1-0.7
		c-1.8-5.1-3.2-10.9-8.9-11.7c-5.8,0-13.6,3.3-17.8,4.7c-3.9,1.3-16.7,6.6-19.4,0.7c-1.6-3.4,3.7-7.6,6.1-9c7.1-4.2,15-5.1,22.6-7
		c1.6-0.7,3-1.7,4-3.4c0.1-4.3-2.2-12.3-2.7-14.1c-1.7-6.5-5.3-12.2-8.1-18.3c-1-2.2-2.2-4.9-3.2-7.4c-0.8-1.3-1.6-2.7-2.1-3.8
		c-1.9-3.7-4.3-7-6.2-10.6c-0.2-0.3-0.3-0.7-0.5-1.1c-0.2-0.2-0.4-0.4-0.5-0.6c-1.5-2.8-3.3-5-5.4-6.7c0,0-0.1-0.1-0.1-0.1
		c-0.8-0.6-1.6-1.2-2.5-1.7c-1.2-0.6-2.4-1.2-3.6-1.6c0,0-0.1,0-0.1-0.1c0,0,0,0,0,0c-1.2-0.4-2.4-0.6-3.6-0.8
		c-0.2,0-0.3-0.1-0.5-0.1c0,0-0.1,0-0.1,0c-0.9-0.1-1.8-0.1-2.7-0.1C422.7,42.7,422.1,42.7,421.6,42.7z"/>
	<path class="st1" d="M424.9,248.3c7.3-0.6,18.7,9.9,25.2,12.6c15.5,6.3,27.7,19.2,37.5,32.2c11.4,14.9,22.9,27.1,28.9,45.4
		c2.2,6.7,6.9,14,7.2,21.1c0.2,6.1-18.4,13.1-19.3,25.1c-1,13.4,27,22.9,22.5,33.1c-3.4,7.6-8.5,14.4-13.1,21.3
		c-8,12.2-14.5,25.3-25.2,34.6c-16,14-36.3,19.7-56.7,23.6c-36.1,6.9-72,7.7-105.1-9.5c-26.1-13.6-41.9-37.7-55-62.9
		c-1-1.9-1.9-4.5-2.5-6.5c-6.4-20.5,20-9.4,20.9-21.8c0.6-7.7-17.7-23.3-19.6-33.6c-3.9-21,7.9-34.4,15.9-51.5c0,0-0.1,0.4-0.1,0.3
		c0.3-1.6,1.4-3.2,2.2-4.7l0.1,0.1c2.3-3.1,4.5-6.3,6.6-9.4c0.8-1,2-2.6,2.5-3.2c12.5-15.5,27.2-28,44.7-37.7
		c0.4-0.3,0.9-0.5,1.3-0.8c0.1,0,0.1-0.1,0.2-0.1c3.9-2.4,8.4-3.9,12.7-5.3c2.1,0.1,4.4,0.2,6.2,0.9c2,0.7,3.8,2.1,5.6,3.3
		c5,6.3,8.4,13.7,12.9,20.3c1.7,2.5,3.1,6.2,5.6,8.1c1.1,1.3,2.3,2.3,3.9,2.5c6.6,0.8,23.7-21.9,26.9-27.1
		C419.6,256,422.9,248.4,424.9,248.3z"/>
	<path class="st2" d="M321.7,340.8c-0.3,0.1-0.4,0.3-0.4,0.6c0.1,0.3,0.4,0.7,0.6,1c0,0.2-0.2,0.3-0.1,0.7c0.4,1.3,2.8,3.4,5.1,5.2
		c4.7,5.9,9.1,11.9,13.1,18.2c-2.9,4.5-5.7,9.1-8.2,13.7c-2.5,4.5-4.8,9.4-6.4,14.3c-0.1,0.2-0.1,0.4-0.2,0.5c-0.8,2-1.7,3.9-2.4,6
		c-1.2,0.5-0.5,2.9,0.4,2.2c0.2-0.2,0.4-0.6,0.6-1c0.2,0,0.3,0,0.6-0.2c1-0.9,1.8-4,2.4-6.9c4.3-9.2,9.1-18.1,14.5-26.7
		c2.5,4,4.9,8,7.2,12.2c2.7,4.9,4.7,9.9,7.1,14.9c0.6,1.2,1,2.5,1.4,3.7c0.2,0.7,0.4,1,0.6,1.6c0.3,1,1,3.2,0.7,2.4
		c-0.1-0.2,0.1-0.3,0.3-0.4c0.3,0.3,0.6,0.6,0.9,0.4c0.3-0.2-0.3-1.6-0.4-1.7c-0.1-0.2-0.2-0.5-0.3-0.7c-0.3-1.2-0.5-2.5-0.9-3.5
		c-3.4-10.7-9.2-21.2-15.4-30.9c1.1-1.7,2.2-3.5,3.4-5.2c3.2-4.6,6.7-8.7,10.1-13c0.9-1.1,1.8-2.1,2.8-3c0.4-0.4,0.6-0.7,1-1.1
		c0.7-0.6,2.5-2.5,2-1.8c-0.2,0.2-0.3,0-0.5,0c0.2-0.4,0.2-0.8-0.1-1c-0.3-0.2-1.3,1-1.4,1.1c-0.2,0.2-0.4,0.4-0.5,0.6
		c-0.9,0.8-2,1.6-2.7,2.3c-5.7,5.6-10.8,12.2-15.4,19.2c-1.1-1.7-2.2-3.4-3.3-5c-2.9-4.3-6.2-8.5-9.9-12.1c-0.3-0.3-0.7-0.7-1-1
		c-1.2-1.4-2.4-2.9-3.7-4.2C323.6,341.2,322.4,340.6,321.7,340.8z M321.6,341.6c-0.1-0.2,0.3-0.1,0.7,0
		C322.2,341.8,321.9,341.9,321.6,341.6z M432.4,340.6c-0.3,0.1-0.4,0.3-0.4,0.6c0.1,0.3,0.4,0.6,0.6,1c-0.1,0.2-0.2,0.3-0.1,0.7
		c0.4,1.3,2.8,3.4,5.1,5.2c4.7,5.9,9.1,12,13.2,18.3c-2.9,4.5-5.7,9.2-8.2,13.7c-2.5,4.5-4.8,9.4-6.4,14.3c-0.1,0.2-0.1,0.4-0.2,0.6
		c-0.8,2-1.7,3.9-2.4,6c-1.2,0.5-0.5,2.9,0.4,2.1c0.2-0.2,0.4-0.6,0.6-1c0.2,0,0.3,0,0.6-0.2c1-0.9,1.8-4,2.4-6.8
		c4.2-9.2,9.1-18.2,14.5-26.7c2.5,4,4.9,8,7.2,12.2c2.7,4.9,4.7,9.9,7.1,14.9c0.6,1.2,1,2.5,1.4,3.8c0.2,0.7,0.4,1,0.6,1.6
		c0.3,1,1,3.2,0.7,2.4c-0.1-0.2,0.1-0.3,0.3-0.4c0.3,0.3,0.6,0.5,1,0.3c0.3-0.2-0.3-1.6-0.4-1.7c-0.1-0.3-0.2-0.5-0.3-0.8
		c-0.3-1.2-0.6-2.4-0.8-3.4c-3.4-10.7-9.2-21.2-15.4-30.8c1.1-1.7,2.2-3.5,3.4-5.2c3.2-4.6,6.7-8.7,10.1-13.1c0.9-1.1,1.8-2,2.7-3
		c0.4-0.4,0.7-0.7,1.1-1.1c0.7-0.6,2.5-2.5,2-1.8c-0.2,0.2-0.3,0-0.5,0c0.2-0.4,0.2-0.8-0.1-1c-0.3-0.2-1.3,1-1.4,1.1
		c-0.2,0.2-0.4,0.5-0.7,0.7c-0.9,0.8-1.9,1.6-2.6,2.2c-5.7,5.6-10.8,12.2-15.4,19.2c-1.1-1.7-2.2-3.4-3.3-5
		c-2.9-4.3-6.2-8.5-9.9-12.1c-0.3-0.3-0.5-0.6-0.8-0.8c-1.3-1.5-2.5-3-3.9-4.4C434.2,341,433.1,340.4,432.4,340.6z M432.4,341.4
		c-0.1-0.2,0.2,0,0.6,0C432.8,341.6,432.6,341.7,432.4,341.4z M322.9,402.3c0.3,0.1,0.5,0.2,0.3,0.6
		C323.2,403.1,323.1,402.7,322.9,402.3z M433.7,402.1c0.2,0.1,0.5,0.2,0.3,0.6C433.9,402.9,433.8,402.5,433.7,402.1z M399.8,426.4
		c-10.2,0.2-20.3,2.2-28.8,5.3c-6.1,2.3-17.1,6.8-18.4,13.9l0.2,0.1c0,0,0,0,0.1-0.1c-1,3.3,0.9,7.4,5.1,6.4
		c7.3-1.7,13-7.8,19.5-11.2c7.6-3.9,15.8-5.2,24.3-4.4c6,0.6,12.9,1.9,17.9,5.3c5.5,3.8,9.2,8.3,15.6,10.9c6,2.4,11.7-0.2,11.8-6.7
		c0.1-8.4-11.9-11.8-18.4-14.6C420.1,427.7,410,426.2,399.8,426.4z M397.7,428.2c9-0.3,18.1,0.7,26.4,3.1
		c6.4,1.8,20.7,6.7,21.1,14.4c0.4,8.1-7,5.7-12.1,4.1c-4.9-1.6-8.4-6.7-12.5-9.5c-5.3-3.5-12.6-4.9-18.8-5.3
		c-8.7-0.6-17.4,0.6-25.1,4.7c-6.2,3.4-11.8,9.3-18.8,11.1c-3.5,0.9-5.2-2.5-4.2-5.3c1.1-3,4.3-4.7,7-6.3l-0.2-0.3
		c-1,0.6-2.1,1.2-3.1,1.8c4.3-3.4,10.1-6,14.4-7.5C379.6,430.2,388.6,428.5,397.7,428.2z"/>
</g>
<g>
</g>
<g>
</g>
<g>
</g>
<g>
</g>
<g>
</g>
<g>
</g>
<g>
</g>
<g>
</g>
<g>
</g>
<g>
</g>
<g>
</g>
<g>
</g>
<g>
</g>
<g>
</g>
<g>
</g>
</svg>
