<?xml version="1.0" encoding="utf-8"?>
<!-- Generator: Adobe Illustrator 22.0.1, SVG Export Plug-In . SVG Version: 6.00 Build 0)  -->
<svg version="1.1" id="Layer_1" xmlns="http://www.w3.org/2000/svg" xmlns:xlink="http://www.w3.org/1999/xlink" x="0px" y="0px"
	 viewBox="0 0 800 600" style="enable-background:new 0 0 800 600;" xml:space="preserve">
<style type="text/css">
	.st0{fill:#003087;stroke:#000000;stroke-width:5.19;stroke-linejoin:round;}
	.st1{fill:#FFFFFF;stroke:#000000;stroke-width:5.15;stroke-linejoin:round;}
	.st2{stroke:#000000;stroke-width:3.05;stroke-linejoin:round;}
</style>
<g>
	<path class="st0" d="M416.5,50c-8,0.2-16.3,3.9-24,9.1c0,0,0,0-0.1,0.1c-4,3.1-7.7,6.5-11.5,9.7c-0.2,0.2-0.4,0.4-0.6,0.6
		c-4.2,4-8.4,8-12.6,12c0,0,0,0,0,0c-1.3,1.4-2,2.3-2.9,3.3c-0.5,0.6-0.9,1.1-1.4,1.7c-3.3,3.9-6,8.1-8.9,12.3
		c-0.5,1-0.9,2.2-1.3,3.3c0,0.1-0.1,0.2-0.1,0.3c0.3,2.6,2,5,3.9,6.9c5.1,3.9,13,7.8,15.8,11.4c1.8,2.3,5.6,6.6,3.4,9.9
		c-1.9,2.9-6.7,0.2-9-0.6c-6.5-2.3-13.9-5.8-20.8-8.3c-2.1-0.8-3.3-0.6-4.7-0.4c-2,1.4-4.3,2.6-6,4.7c-5.1,6.4-9.7,12.9-14,19.9
		c-0.4,0.8-1.1,1.9-1.3,2c-0.8,0.9-1.3,1.9-1.9,2.8c0,0,0,0,0,0c-0.6,1.2-1.9,4.2-3.4,7.1c-0.9,2.4-1.3,4.9-0.3,6.8
		c3.9,7.5,19.9,9.9,27.4,14.1c0.5,0.2,1,0.4,1.6,0.6c2.8,1.2,9.2,4.3,7.8,8.4c-0.5,1.5-1.8,2.3-3.3,2.8c-3.6,2.8-8.8-0.1-12.7-1.4
		c-1.6-0.2-3.3-0.4-4.8-1c-3.2-1.2-8.3-3.7-13-5.4c-2.7-0.9-5.4-1.6-8-1.9c-2.4,0.1-4.7,0.7-6.8,1.6c-7.4,12.4-16.1,25-21.1,38.5
		c-5.6,15.1-16.2,38.3-28.8,48.8c-8.4,7-21.9,2.7-30.8,9c-6.5,4.6-10.1,26.8-17.8,27.6c-4.8,0.5-3.9-6-4.1-8.8
		c-0.5-6.3,4.6-20.2-4.1-23.5c-6.4-2.4-17.9-10.7-24.7-5.5c-4,3.1-13.9,23-18,21.6c-8.8-3,6.4-24.5-2.4-29.9
		c-8.4-5.2-40.4-20.8-48.8-12.4c-4.5,4.5-4.2,14.6-4.1,20.5l-0.4,0c0.1,1.4,0.3,2.8,0.4,4.2c0.9,11.9,2.6,23.5,5.1,35.4
		c1.1,5.1,2.7,12.4,7.9,14.7c1.7,0.7,5.6-1.8,6.9-2.7c4.1-2.7,21.9-16.4,25.8-6.9c1.3,3.2-1.7,5.2-3.4,7.5
		c-5.5,7.3-17.5,8.1-23.6,15.2c-4.7,5.4,6,19.3,8.3,24.4c1.6,3.7,4.4,13.3,8.6,14.9c9.6,3.5,19.5-4.8,27.3-9.1
		c3.9-2.1,8.2-3.6,12-5.7c2.5-1.4,13.5-6.6,15.9-3.1c3.2,4.6-5.6,9.6-8.1,11.8c-6.3,5.7-14.2,10.3-21.4,14.8
		c-4.2,2.6-11,4.7-13.6,9.2c-0.8,1.3-0.8,2.8-0.5,4.2c4.3,3.4,8.5,11.2,11.6,14.9c12.1,14.5,22.6,29.9,36.8,42.8
		c25.4,23,56.3,42.8,88.3,55.3c4.7,1.8,9.7,3.1,14.6,4.3l0.1-0.1c10.3,0.5,21.3,4.1,31.3,6.7c10.5,2.7,22,3.1,32.8,4.2
		c2.8,0.3,5.7,0.5,8.6,0.6c0,0,0.1,0,0.1,0c15.3-0.6,30.4-1.7,45.5-3.3c5.7-0.9,11.4-2,16.8-3.1c11.6-2.4,22.9-4.3,34.1-7.1
		c5.2-1.6,10.5-3.3,15.7-5c20-8.2,38.6-19.4,56.7-31.1c11.9-7.7,24-15.9,34-25.8c10.9-10.8,24.6-19.9,33.6-32.5
		c2.7-3.8,8-8.6,13.2-13.8c0.9-1.6,3.7-4.1,4.4-4.8c0.1-0.1,0.1-0.2,0.2-0.3c0.3-0.8,1.1-1.6,1.4-2c0.3-0.3,0.5-0.6,0.8-0.9
		c0.5-0.8,1-1.5,1.5-2.3l-0.1,0c0.3-0.5,0.7-0.9,1-1.4c0.4-0.6,0.8-1.1,1.2-1.7c0.6-1.1,1.3-2.3,1.9-3.3l0.3,0.1
		c1.1-2.7,1.8-5.3,1.5-8c-3-6.4-16.3-14.8-20.3-17.5c-3.4-2.3-14.3-14.6-10.8-19.4c2.3-3.2,9.9,1.2,12.3,2.4
		c6.9,3.4,22.7,16.2,30.6,13.4c4.6-1.6,8.6-10.4,10.4-14.6c4.4-10.1,9-20,9.8-31.2c0.1-1.1,0.2-2.4,0.2-3.7
		c-0.9-2.5-2.5-4.3-4.8-5.6c-4.5-2-10.5-2.5-15-4.4c-2-0.8-6.2-2.6-6.1-5.2c0,0,0-0.1,0-0.1c0-0.1-0.1-0.1-0.2-0.2
		c-1.2-3.5,5.8-3.4,7.5-3.2c2.1,0.3,4.4,0.7,6.7,1c5.9,0,11.4-0.5,16.3-5.1c2.5-2.4,1.6-11.3,1.8-14.4c0.3-5.1,1.4-15.2,1.4-24.6
		c-0.3-2.4-0.6-5-1-6.6c-0.9-4.3-1.1-9.9-4.8-12.6c-2.3-0.7-5.5,0.1-7.4,0.4c-7.4,0.9-15,2.3-22.4,2.5c-2.5,0.1-6.3,0.9-7.2,3.7
		c-0.4,1.4-0.6,2.9-0.8,4.4c-0.1,0.4-0.1,0.9-0.1,1.3c-0.3,5.3,0.5,10.9-0.5,15.9c-0.4,2.1-0.5,6-3.2,6.5c-0.6,0.1-1.1-0.1-1.7-0.3
		c-0.1,0-0.1,0-0.2,0c-0.4-0.1-0.7-0.2-1-0.5c-0.1,0-0.1-0.1-0.2-0.2c-1.8-1.4-3-4-3.7-5.8c-1.7-4.9-2.1-16.6-7.1-19.6
		c-2.3,0-4.2,0.6-6.6,0.8c-4.9,0.4-18.3,1.5-22.2,6c-2.1,11.1,1.9,21.5,1.3,32.6c-0.2,3.2,1.3,7.1-2.2,9.1c-4.1,2.4-7.3-3.7-8.6-6.3
		c-1-2-1.9-6-2.7-10.3c-1-3.5-1.8-6.9-2.2-10.6c0-0.4-0.1-1.1-0.1-1.6c-0.6-3.1-1.3-5.7-2-6.1c-3.2-2-6.7-1.4-10.1-2.2
		c-12.8-2.9-27-5.1-37.6-13.5c-9.4-7.5-16-17.1-22.1-27.3c-1.8-3.1-3.3-6.7-4.8-10.4c-1.6-2.5-3.2-5.2-4.4-8.1
		c-0.1-0.2-0.3-0.4-0.4-0.6l-0.1,0c0,0,0-0.1,0-0.1c-0.8-1.2-1.8-2.5-2.8-3.6c-0.4-0.4-0.7-0.9-1.2-1.3c-0.2-0.1-0.4-0.2-0.6-0.3
		c-9.2-2.9-17.7,8.5-26.8,11.1c-3.5,1-11.8,4.7-14.5-0.4c-2.7-5.1,5.5-9.3,8.8-11.1c7.1-3.8,18.1-7.4,23.4-14.4
		c3.7-7.7-0.4-13.7-1.5-22.5c0-0.2-0.1-0.5-0.1-0.7c-1.7-5.2-3-10.9-8.7-11.8c-5.8-0.1-13.6,3-17.9,4.4c-3.9,1.3-16.8,6.3-19.4,0.4
		c-1.5-3.4,3.8-7.6,6.2-8.9c7.2-4.1,15.1-4.8,22.7-6.6c1.6-0.7,3.1-1.7,4-3.3c0.2-4.3-2-12.3-2.4-14.2c-1.6-6.5-5.1-12.3-7.8-18.4
		c-1-2.2-2.1-5-3.1-7.5c-0.8-1.3-1.5-2.8-2-3.9c-1.8-3.7-4.2-7.1-6-10.7c-0.2-0.3-0.3-0.8-0.5-1.2c-0.2-0.2-0.4-0.4-0.5-0.6
		c-1.4-2.8-3.2-5-5.3-6.8c0,0-0.1-0.1-0.1-0.1c-0.8-0.7-1.6-1.2-2.5-1.7c-1.2-0.7-2.4-1.2-3.6-1.6c0,0-0.1,0-0.1-0.1c0,0,0,0,0,0
		c-1.2-0.4-2.3-0.7-3.5-0.9c-0.2,0-0.3-0.1-0.5-0.1c0,0-0.1,0-0.1,0c-0.9-0.1-1.8-0.2-2.7-0.2C417.6,50.1,417.1,50,416.5,50z"/>
	<path class="st1" d="M416.3,255.6c7.3-0.5,18.5,10.2,25,13c15.4,6.6,27.4,19.7,37,32.8c11.1,15.1,22.4,27.5,28.1,45.9
		c2.1,6.7,6.6,14.1,6.8,21.2c0.1,6.1-18.7,12.8-19.8,24.8c-1.2,13.3,26.6,23.4,21.9,33.5c-3.5,7.6-8.8,14.2-13.5,21.1
		c-8.2,12-15,25-25.8,34.2c-16.3,13.7-36.6,19.1-57.1,22.6c-36.2,6.3-72.2,6.4-104.9-11.4c-25.9-14.1-41.2-38.5-53.8-63.9
		c-1-1.9-1.8-4.5-2.4-6.5c-6.1-20.6,20.1-9.1,21.3-21.4c0.7-7.7-17.3-23.6-19-33.9c-3.5-21.1,8.5-34.3,16.8-51.2
		c0,0-0.1,0.4-0.1,0.3c0.3-1.6,1.4-3.2,2.3-4.7l0.1,0.1c2.4-3.1,4.6-6.2,6.8-9.3c0.8-1,2.1-2.6,2.5-3.1
		c12.8-15.3,27.7-27.5,45.3-36.9c0.4-0.3,0.9-0.5,1.3-0.8c0.1,0,0.1-0.1,0.2-0.1c3.9-2.3,8.4-3.7,12.8-5.1c2.1,0.2,4.4,0.3,6.2,1
		c2,0.8,3.7,2.1,5.5,3.4c4.9,6.3,8.2,13.9,12.6,20.5c1.6,2.5,3,6.3,5.5,8.2c1,1.3,2.2,2.4,3.8,2.6c6.5,0.9,24.1-21.5,27.4-26.6
		C410.9,263.3,414.3,255.7,416.3,255.6z"/>
	<path class="st2" d="M381.8,448.8c6.2-0.3,12.4-0.5,18.6-0.8c1,0,6.5-1.6,7.1-0.6c2.2,3.7-8.7,30.1-12.5,30.5
		c-6.2,0.6-22-24.7-18.9-28.2c2.6-2.9,11.5-1.3,15.3-1l0,0.6c-2.3,0.5-13.4,0.7-13.7,1c-1.8,2,12.9,26.5,16.9,26.4
		c3.4-0.1,10.9-25,11.7-28.2c0.2-0.8-3.7,0.5-5.8,0.6c-6.2,0.2-12.4,0.4-18.6,0.7 M334.9,330c3,2.8,23.4,19.2,23.1,22.8l-0.2,0.1
		c0.5-1.9-21.2-20.4-23.2-22.3 M436,330.9c-3.1,2.6-23.9,18.4-23.8,22l0.2,0.1c-0.4-1.9,21.8-19.6,23.9-21.5 M308.3,365.6
		c16.3-8,29.5-7.2,46.1-1.7c1.3,0.4,4.8,0.4,5.6,1.6l-0.1,0.3c-0.8-0.8-4.7-0.7-5.9-1.2c-16.1-5.8-29.3-5.6-45.1,1.9 M461.2,367.3
		c-15.9-8.5-29.2-8.2-45.9-3.2c-1.3,0.4-4.8,0.2-5.7,1.4l0.1,0.3c0.9-0.8,4.7-0.6,5.9-1c16.2-5.2,29.4-4.6,44.9,3.4 M323.9,416.8
		c7.1,1.6,14.6,0.6,21.5-1.8c0.6-0.2,2.5-0.8,2.3-1l0.9,1.2c-2.8,5-21.6,3.9-25.3,2.9 M444,417.8c-7.1,1.4-14.5,0.1-21.4-2.6
		c-0.5-0.2-2.4-0.9-2.2-1.1l-0.9,1.1c2.6,5.1,21.4,4.6,25.1,3.8 M334.7,367.2c-24.4,4.5-16.8,45.7,1.2,43.2
		c11.3-1.6,13.2-22.8,12.6-31.3c-0.1-1.7-4.7-9.6-6.2-8.7c-2.3,1.3-13.1-6.8-14.3-1l-0.3-0.4c0.4-5.1,11.8-2.6,14.8-0.8
		c13.5,8.2,8.6,28.3,0.1,38.7c-1.6,2-4,5.3-7,5.5c-21,1.8-27-42.7-0.8-46 M434.9,367.9c24.2,5.4,15.2,46.1-2.7,43
		c-11.2-2-12.4-23.2-11.5-31.7c0.2-1.7,5.1-9.4,6.5-8.5c2.2,1.4,13.3-6.3,14.3-0.5l0.3-0.4c-0.2-5.1-11.7-3-14.7-1.3
		c-13.8,7.7-9.5,27.9-1.4,38.6c1.6,2.1,3.9,5.4,6.7,5.7c20.9,2.6,28.4-41.6,2.4-45.8 M322.3,374.2c-7.2,21.6,28.2,16.2,22.4,0.2
		c-0.6-1.6-1-4-3.3-4.6l0.1-0.6c5.4,0.2,6.7,10.1,4.2,13.9c-6.3,9.6-31.9,10.4-23.9-9.3 M447,375.3c6.5,21.8-28.7,15.2-22.4-0.6
		c0.6-1.6,1.1-4,3.4-4.5l-0.1-0.6c-5.3,0-7,9.8-4.7,13.7c5.9,9.8,31.4,11.4,24.1-8.5 M319.4,394.3c6.8-3.8,11.4,5.8,16.2,3
		c3.7-2.1,9.6-4.9,13-4.9l0.4,0.2c0.1,0.5-11.8,5.4-13.5,5.8c-6.6,1.6-8.4-7.2-15.6-3.7 M449.3,395.5c-6.7-4-11.6,5.4-16.3,2.5
		c-3.6-2.2-9.4-5.2-12.8-5.3l-0.4,0.2c-0.1,0.5,11.6,5.8,13.3,6.2c6.5,1.8,8.7-6.9,15.7-3.2 M333.8,330c6.8,0.9,14.5,11.4,18.7,16.1
		c1.5,1.7,7.3,4.7,4.3,5.8c-0.3,0.1-3.7-3.7-3.9-3.9c-3.7-3.4-7.2-7.2-10.7-10.8c-0.8-0.8-9.9-7.3-8.8-7.7
		c2.5-0.7,16.9,13.7,18.6,15.7c1.5,1.7,3.3,3.2,4.8,4.8c0.7,0.7,2.5,3.2,1.9,2.4c-2.5-3.5-11.6-9.7-15.5-14.4c-1.7-2.1-4-4-6.2-5.4
		c-1.1-0.8,2.2,2.9-2.7-2.5c-1.6-1.8,5.1,2.6,6.3,4.1c3.6,4.7,9.4,8.5,13.7,12.5c0.7,0.6,6.1,5.5,4.3,6.8c-0.8,0.5-1.5-0.7-1.8-1.1
		c-3.7-4.5-10.3-11.1-15.5-15.7c-1.8-1.6-3.8-3-5.7-4.5c-0.8-0.6-2.6-3-2-2.2c1,1.5,5.1,2.9,6.8,4.3c4.3,3.5,7.7,8.2,11.9,11.9
		c1.2,1,5.4,3.3,5.7,5.1c0.8,3.6-7.5-4.6-8.3-5.5 M437.1,330.9c-6.8,0.6-14.9,10.9-19.2,15.4c-1.6,1.7-7.5,4.5-4.5,5.6
		c0.3,0.1,3.8-3.6,4-3.7c3.8-3.3,7.4-6.9,11-10.4c0.8-0.8,10.1-7,9-7.4c-2.4-0.8-17.3,13.1-19.1,15c-1.5,1.6-3.4,3.1-4.9,4.6
		c-0.7,0.7-2.6,3.1-2,2.3c2.6-3.4,11.9-9.2,16-13.8c1.7-2,4.1-3.8,6.4-5.2c1.2-0.7-2.3,2.8,2.8-2.4c1.7-1.7-5.2,2.4-6.4,3.9
		c-3.7,4.5-9.6,8.2-14.1,12c-0.7,0.6-6.3,5.3-4.6,6.6c0.7,0.5,1.5-0.7,1.9-1.1c3.9-4.4,10.6-10.7,16-15.1c1.9-1.6,3.9-2.8,5.8-4.3
		c0.8-0.6,2.7-2.9,2.1-2.1c-1.1,1.5-5.2,2.7-6.9,4.1c-4.4,3.4-7.9,8-12.3,11.4c-1.2,1-5.5,3.1-5.9,4.9c-0.9,3.6,7.6-4.3,8.5-5.2
		 M309.3,364.1c4.4-4.9,27.7-5.3,34.3-4.3c3.5,0.6,6.8,1.3,10.3,2.2c1.1,0.3,2.3,0.6,3.4,1c0.6,0.2,2.2,0.9,1.7,0.6
		c-0.8-0.5,0-0.2-0.9,0.9c-0.7,0.9-2-1-3-1.5c-2.4-1.1-5.1-1.7-7.7-2c-8.9-1.1-17.7-1.2-26.7-0.1c-2.6,0.3-12.8,6.1-13.1,4.5
		c-0.5-2.8,10.6-4.5,11.8-4.7c9.2-1.6,19.5-0.4,28.8,0.8c4.1,0.5,16.5,5.9,9.2,2.4c-1.8-0.8-3.5-1.5-5.3-2.1l0.1-0.4
		c1.9-0.1,12.2,4.5,8.2,4.4c-5.5-0.1-12.8-3.3-18.6-4.1c-11.8-1.7-24.6,0.8-34.2,3.7c-0.6,0.2,1-0.8,1.5-1.1
		c0.7-0.5,1.4-1.3,2.2-1.8c2.5-1.3,5.7-2,8.4-2.7c9-2.3,20.7-1.5,29.7,0.3c0.8,0.2,9.5,2.1,9.4,3.2c-0.2,2.2-12.8-1.9-15.4-2.3
		c-6.3-1-28.5,0-33.1,4.1 M460.4,365.7c-4.2-5-27.5-6.2-34-5.5c-3.5,0.4-6.9,1.1-10.4,1.8c-1.1,0.2-2.3,0.5-3.4,0.9
		c-0.6,0.2-2.3,0.9-1.7,0.6c0.8-0.4,0-0.2,0.9,0.9c0.7,0.9,2-0.9,3.1-1.4c2.4-1,5.1-1.6,7.7-1.8c8.9-0.8,17.7-0.6,26.6,0.8
		c2.5,0.4,12.6,6.5,12.9,4.9c0.6-2.7-10.4-4.8-11.6-5.1c-9.2-1.9-19.5-1.1-28.8-0.2c-4.1,0.4-16.6,5.3-9.3,2.1
		c1.8-0.8,3.5-1.4,5.4-1.9l-0.1-0.4c-1.9-0.1-12.3,4.1-8.3,4.1c5.4,0.1,12.8-2.8,18.7-3.5c11.8-1.3,24.5,1.7,34,4.8
		c0.6,0.2-0.9-0.8-1.4-1.2c-0.7-0.6-1.4-1.4-2.2-1.8c-2.5-1.4-5.6-2.2-8.3-3c-8.9-2.6-20.6-2.2-29.6-0.7c-0.8,0.1-9.6,1.8-9.5,2.9
		c0.1,2.2,12.8-1.5,15.4-1.8c6.3-0.8,28.5,0.9,32.9,5.2 M325.3,417.5c5.6,0.9,10.2,1.6,15.7,0.1c3.2-0.9,7.9-4.9,9.2-2.2
		c0.3,0.5-4.7,2.7-5,2.8c-4.6,1.8-9.7,3.2-14.7,2.6c-1.7-0.2-3.8-0.8-5.3-1.7c-0.5-0.3-1.8-1.2-1.3-0.6c1,1.2,16.1,0.7,18.3-0.4
		c1.7-0.8,5.6-3.7,7.5-3.4l0.3,0.8c-5.3,5.3-13.3,5.6-20.3,5.4c-1.9,0-10.3-0.9-6.4-4.1c1-0.8,4.9,1.4,6.2,1.7
		c3.1,0.8,6.3,0,9.4-0.6c3-0.5,10.1-5.4,11.9-3.4c0.7,0.8-5.9,3.9-6.2,3.9c-7.7,1.9-11.9,2.6-19.9,0.6 M442.6,418.4
		c-5.6,0.7-10.2,1.3-15.6-0.4c-3.1-1-7.7-5.1-9.1-2.5c-0.3,0.5,4.6,2.9,4.9,3c4.6,1.9,9.6,3.5,14.6,3.1c1.7-0.1,3.8-0.7,5.3-1.5
		c0.5-0.3,1.8-1.1,1.3-0.6c-1.1,1.1-16.1,0.1-18.3-1c-1.7-0.9-5.5-3.9-7.3-3.7l-0.3,0.8c5.1,5.5,13,6,20,6.1c1.9,0,10.3-0.6,6.6-3.8
		c-1-0.9-5,1.2-6.2,1.5c-3.1,0.7-6.3-0.2-9.3-0.9c-3-0.6-9.9-5.7-11.8-3.8c-0.7,0.7,5.7,4,6.1,4.1c7.6,2.2,11.8,3,19.8,1.3
		 M330.6,367c-1.8,0.8-3.2,2.6-4.5,4l0,0c0.9-1.5,2.5-4,4.5-4.3 M439,367.9c1.8,0.8,3.1,2.7,4.3,4.2l0,0c-0.8-1.6-2.4-4.1-4.3-4.4
		 M330,367.5c-1.5,0.3-2.5,2.1-3.6,3.1c-0.4,0.4-1.2,1.9-1.1,1.3c0.2-1.5,1.4-2.8,3.1-4.2c0.6-0.5,2.4-1.8,2.2-1
		c-0.1,0.6-3.9,2.8-4.7,3.7c-0.5,0.6-1,1.3-1.5,2c-0.2,0.2-0.6,1-0.4,0.8c0.8-0.9,2.4-3.6,3.8-5c0.8-0.8,3.6-2.9,2.9-2
		c-1.5,2.1-4.8,3.8-6.6,6.4c-3.4,4.9-3.4,9.4-4.9,14.7l-0.2,0c-2.9-5.2,3-13,5.9-16.9c0.9-1.2,4-5.1,6-4c0.2,0.1-2.4,1.9-2.7,2.2
		c-0.9,0.9-3.5,5.1-4.8,4.7c-0.5-0.1,0.8-1.7,0.8-1.7c1.1-1.5,3.9-5.2,6.2-4.7c0,0-3.6,3.6-4.3,4.3c-0.1,0.1-1.6,1.2-1.5,0.6
		c0.2-1.5,3.9-4.4,5.3-4.5 M439.5,368.4c1.5,0.3,2.5,2.2,3.4,3.2c0.4,0.4,1.1,1.9,1,1.4c-0.2-1.5-1.3-2.9-2.9-4.3
		c-0.6-0.5-2.3-1.9-2.2-1.1c0.1,0.6,3.7,2.9,4.5,3.9c0.5,0.6,1,1.4,1.4,2c0.2,0.3,0.6,1,0.4,0.8c-0.8-0.9-2.3-3.7-3.6-5.2
		c-0.8-0.9-3.5-3-2.9-2c1.4,2.2,4.6,4,6.3,6.6c3.2,5,3,9.5,4.4,14.8l0.2,0c3.1-5.1-2.5-13-5.3-17.1c-0.8-1.2-3.8-5.2-5.8-4.2
		c-0.2,0.1,2.3,1.9,2.6,2.3c0.8,1,3.3,5.2,4.6,4.8c0.5-0.1-0.7-1.7-0.7-1.7c-1.1-1.5-3.7-5.3-6-4.9c0,0,3.4,3.7,4.2,4.4
		c0.1,0.1,1.5,1.3,1.5,0.6c-0.2-1.5-3.8-4.5-5.1-4.6 M322.1,373.3c5.4-9.3,14.3-9.1,22.4-3.5l0,0c-8.5-4.1-16.4-5.9-22.1,3.7
		 M447.2,374.5c-5.1-9.4-14-9.6-22.2-4.3l0,0c8.6-3.8,16.6-5.4,21.9,4.4 M347.4,379.5c-0.1,1.1-0.1,2.3-0.2,3.4
		c-0.1,1-1.8-5.5,0.5-4.7c1.7,0.5,0.1,5-1,4.5c-1.9-0.9-0.4-5.6,0.5-5.3c1.8,0.5,0.3,6.2-0.3,5.9c-1.7-1,0.2-4.7,0.7-4.3
		c1.5,1.1-1.3,9.1-3.5,8.3c-2.6-1,3.3-5.1,3.3-4.9c0.4,1.9-3.8,7.5-4.9,5.9c-1.3-1.8,3.4-6.1,4.8-5.3c2.5,1.4-3.4,8.9-6.2,7.8
		c-3.6-1.6,4.4-7.9,5.4-6.5c2.4,3.3-6.8,11-7.2,6.9c-0.2-2.3,5.8-8.7,8.2-8.5c2.9,0.2-4.5,11.7-6.9,8.6c-2.8-3.6,5.9-9.9,7.2-8.2
		c1.9,2.6-3.4,9.2-6,9.9c-0.2,0-1.3,0.5-1.6,0c-1.4-3.1,7.2-8.6,7.8-7c0.8,2.2-4.6,9.2-6.9,7.3c-3.3-2.6,5.9-6.1,6-4.3
		c0.1,2.4-2.5,3.7-4.4,4.6c-0.3,0.1-0.7,0.8-0.9,0.5c-0.9-2,1.6-2.5,3.2-3.3c0.1,0,0.8-0.2,0.9,0.1c0.4,1.7-3.4,4.6-4.8,3.4
		c-2.2-2,5.9-4,5.9-4c-0.1,0.9-4.2,5.3-5.1,4c-1-1.4,3.7-4.6,5-4.2c4.1,1.5-5.4,5.9-4.9,4c0.7-2.3,7.1-4.5,4.9-1.5
		c-1.6,2.2-11.5,3.7-10.3,0.8c0.6-1.6,7.4-4.6,7-3.5c-1.1,3.2-6.4,3.7-9.1,4c-0.5,0.1-1.5,0.4-1.4-0.1c0.2-3.4,4.1-4.7,7-5.6
		c0.2,0,1.4-0.1,1.5,0.4c0.3,3.1-3.6,4.1-5.9,4.6c-1,0.2-3.1,1.3-3,0.4c0.4-3.9,9.4-6.4,9.3-4.4c-0.1,3.8-5.9,4.6-8.5,6
		c-1.1,0.6,5.7-6.2,5.5-2.5c-0.2,2.6-7.2,6.5-7.1,2.8c0-1.4,7.7-4,7.7-1.7c0,2.1-4.7,4.8-6.6,3.1c-1.6-1.5,5-4.5,4.7-3.3
		c-0.8,3-6.6,3.8-9.2,2.7c-0.2-0.1-0.5-0.3-0.5-0.5c0.4-2.7,7.3-4.8,8-3.3c1.4,2.8-5.3,3.9-6.4,2.1c-1.5-2.6,4.2-6,5.9-4.1
		c4.6,5.4-15.5,5.7-5.7,0.3c0.7-0.4,1.4-0.7,2.2-0.9c0.6-0.2,1.2-0.2,1.8-0.2c5.9,0.2-1.5,6.1-5.1,6.4c-0.5,0-1.6,0-1.4-0.5
		c3.4-9.1,11.2,2.4,4.7,2.6c-3.8,0.1,2-3,1.5-2c-0.5,1.3-2.1,1.4-3.2,0.5c-1.2-1,0.9-2,0.6-2.6c-0.2-0.4-8.2-1.6-4.3-3.9
		c4.3-2.6,6.8,4.6-1.7,4.2c-0.4,0-1.8,0-1.9-0.8c-0.8-6.7,11.7-4.5,7.1,0c-2,1.9-6.3,0.5-3.9-2.5c0.6-0.8,3-2.1,2.9-1.1
		c-0.3,3.1-8.7,3.8-8.1,0.6c0.4-1.8,4.4-2.8,4.4-0.3c0,0.8-3.4,5.6-4.1,3.8c-0.7-1.8,0.8-2.5,1.9-3.5c0.5-0.5,1.6-2.3,1.6-1.5
		c0,0.7-3.8,4.3-4.1,4c-1.5-1.5,0.9-2.5,1.9-3.3c0.3-0.2,0.7-0.8,0.8-0.5c1.1,2.1-2.1,3.2-2.8,5.2c-0.2,0.5-0.9-0.5-1.1-0.9
		c-0.5-0.9,1.7-3.4,2-2.4c0.2,0.7-2.4,5.9-3.2,3.6c-0.9-2.7,7.6-1.7,8.5-1.3c0.1,0,1.4,0.7,1.3,0.8c-1.1,1.3-9.2,1-9.5,0.2
		c-0.8-2.2,7.6-4.5,7.5-2.4c-0.1,1.1-6.7,3.6-7.4,2.7c-0.1-0.1,0.9-1,0.9-1c0.8-0.7,7.4-2.6,7.1-0.3c-0.1,1.2-7.7,1.7-8,1.2
		c-0.6-1.2,4.8-3.6,5.4-3.7c0.1,0,1.2-0.1,1.2,0c0.1,1.6-4.7,1.3-4.7,1c-0.4-1,1.7-2.9,1.9-2.6c1,1.4-1.4,3.1-2.6,2.2
		c-1.4-1,1.5-3.6,2.5-3.2c2,0.8-0.2,3.9-2,3.2c-2.3-1-0.1-5.4,1.5-4.6c1.5,0.8-0.1,3.9-1.3,4.3c-3.7,1.2-1.7-5.7-0.8-5.6
		c1.2,0.1,1,0.2,0.8,1.3c-0.5,3.7-3.3-0.2-1.2-2.5c1.5-1.7,1.1,3.9,0.3,5c-0.3,0.4-0.7-1-0.4-1.4c0.9-1.1,1.9,0.3,2.8,0.4
		c0.3,0,0.9-1,1.4-0.5c1,0.9,0.1,2.3-0.9,2.7c-5,2.2-1.6-2.7-1.5-2.6c0.9,1.1-1.1,5.4-2.6,4.3c-1.4-1,0.6-6.7,1.9-6.1
		c1.5,0.7-0.4,6.5-1.5,5.6c-1.3-1.1,1.2-6.3,2.1-5.9c1.8,0.9-0.3,3.7-0.1,4.9l0,0c-1.8,0.9-0.7-2.6-0.5-3.2c0.2-0.5,1.4-0.9,1-1
		c-0.7-0.3-0.9,1.3-1.2,2c-0.2,0.4-1.4,2.1-1.4,2.4c0,0,0.7-2,0.7-2.2c0.3-1.3,0.4-1.3,1.2-2c0.4-0.3-0.4,0.9-0.6,1.4
		c-0.2,0.7-0.4,1.8-0.8,2.5c-0.1,0.2-0.9,0.6-0.6,0.6c0.9,0,2.7-2.6,2.6-2.6c-0.5,0.4-1.9,1.3-1.3,1.3c0.9,0.1,2-0.2,2.5-0.7
		c0.2-0.3,1.5-0.4,1.1-0.4c-0.8,0-4.9,0.1-4.9,0c-0.2-0.5,0.9-2.4,1.1-2.9c0.2-0.4,1-1.3,0.7-1.1c-0.5,0.5-1.2,2.4-1.4,3.1
		c-0.2,0.8,0.9-1.7,1.7-1.9c0.1,0-1.8,3.8-1,4.1c0.6,0.2,2.3-2.5,2.3-2.5c-2.7,0.3-1.5,4.6,0.7,1.8c0.6-0.8-1.9,0.4-2.8,0.9
		c-0.3,0.2,0.8,0.1,1.1,0c1.1-0.6,0.6-0.9,1.9-0.1c0.7,0.5-3.2,0.7-2.4,0.9c1,0.2,2.8-0.1,3.8-0.3c0.4-0.1,1.2,1.1,0.8,1
		c-1.5-0.2-4.5,1.6-5,2.3c-0.2,0.3-1.4-0.3-1.3,0.1c0.2,0.8,1.4-0.9,2.2-0.8c2.8,0,3.7-0.4,4.9,0.6c0.3,0.3-0.7-0.2-1.1-0.3
		c-0.7-0.1-1.3,0-2,0.1c-1.6,0.3-3,1.6-4.4,1.1c0,0,1.8-1.4,1.9-1.4c1.3-0.6,3.4-1.6,4.9-1.5c0.3,0,0.5,1.1,0.2,1
		c-2.2-1-4.5,0.2-5.9,2.1c-0.1,0.2-0.3,0.6-0.6,0.6c-0.3,0-0.6-0.2-0.8-0.4c-0.3-0.4,0.2-0.7,0.5-0.9c2.3-1.5,5.8-1.5,8.4-0.7
		c0.1,0,0.7,0.4,0.7,0.4c-0.1,1.6-8.4-0.2-9.5,0.5c-0.5,0.3,0.7-0.9,1.1-1.4c1-1.1,1.3-2.1,2.8-1.5c1.8,0.7-4,3.5-2.9,2
		c1.1-1.5,2.6-4.3,4.6-3.5c0.5,0.2-0.8,0.5-1.2,0.9c-1,0.9-1.6,2.2-3,1.1c-0.1-0.1,4.8-3.1,5.4-3c1.2,0.2-0.3,1.4-0.3,1.4
		c-1.3,1.2-2.6,1.6-3.5,2.3c-0.4,0.3,2.6-1,3.4-2.3c0.4-0.7-2.9,0.1-2.8,0.2c1.4,0.7,5.7,0.6,7.1,0.2c0.3-0.1-0.7,0.1-1,0.3
		c-0.2,0.1-1.8,1.1-1.9,1.3c-0.2,0.5,4.7,0.6,3.7-1.1c-0.8-1.4-5.1,0.5-6.1,0.9c-0.1,0.1-0.2,0.4-0.1,0.5c0.8,0.5,5.4,0.1,6.2-0.5
		c0.1-0.1-3.5-1.6-3.3-1.2c0.4,1,3.7,1.2,4.6,2c2.3,2.1-0.5,2.2-0.3,2.5c0.2,0.4,2.7,0.4,2.6,0.8c0,0.4,0,1.5-0.3,1.2
		c-1.8-1.7-2.1,0.2-0.1-1.9c0.3-0.3,0.9-0.6,0.4-1.2c-1.3-1.4-2.8,0.4-3.9,0.5c-0.6,0.1-2.5-0.5-1.9-0.1c1.8,1.1,6.1-1.8,7.3-2.9
		c0.2-0.1,0.3-0.4,0.2-0.6c-0.6-0.9-6.1,0.6-6.7,1.3c-0.7,0.9,2.2,0.8,3.3,0.8c0.8,0,3.1-0.5,3.5-1.4c0.3-0.7-4.7-0.1-5,1.3
		c-0.2,0.8,3.4,0.4,3.8,0.4c0.3,0,1.4,0.3,1.8,0.2c0.8-0.2-1.6-0.3-2.4-0.2c-1.6,0.3-2.9,0.6-4.4,0.8c-0.2,0-0.3,0.3-0.2,0.4
		c1.1,1,5,0.1,6.4-0.2c0.9-0.2,3.2,0.4,2.8-0.5c-0.1-0.4-2.8,1.3-3,1.4c-0.2,0-1.3-0.6-1.6-0.1c-0.3,0.4,1.1,0.2,1.6,0.2
		c0.6,0,4.7-0.9,4.4-1.7c-0.1-0.2-0.5-0.3-0.8-0.2c-2.8,0.2-3.6,2.3-6.1,1.6c-0.1,0,0.1,0.1,0.2,0.1c0.8,0.1,6.7-1.5,6.3-2.6
		c-0.3-0.8-3.8,1.7-4.1,1.7c-0.6,0-2.3-0.7-1.7-0.8c2.5-0.7,6.3-1.8,8.3-3.6c0.2-0.2,0.5-0.6,0.3-0.8c-1.3-1.7-6.1,3-7.2,3.2
		c-0.6,0.1-2.3-0.6-1.7-0.5c1.4,0.4,8.8-2.3,8.5-2.7c-1.2-1.6-5,2.9-6.2,3.1c-0.6,0.1-2.2-0.3-1.7-0.1c1.8,0.6,8.7-0.6,10.2-2.3
		c0.4-0.5-1.3,0.2-1.9,0.5c-1.7,1-2.8,2.4-4.6,2.7c-1,0.2,1.9,0.4,2.9,0.4c0.5,0,0.9-0.1,1.4-0.1c1.2-0.1,5.1-1.2,5.8-1.9
		c0.6-0.6-1.6,0.6-2.3,1.1c-0.4,0.3-0.7,0.7-1.2,0.7c-0.5,0.1-1.1-0.8-1.3-0.4c-0.2,0.3,2.6-0.8,2.7-0.8c0.3-0.2,2.1-0.9,2.1-1.1
		c0.3-1-1.9,0.7-2.7,1.3c-1.3,0.9-1.4,0.8-2.8,0.6c-0.6-0.1,1.2-0.2,1.7-0.5c1.3-0.8,2.6-1.2,3.6-1.8c0.5-0.4-1.1,0.6-1.7,1
		c-2,1.3-2.2,1.1-4.3,1.3c-0.4,0,0.7,0.1,1.1,0c1-0.2,1.8-1.2,2.6-1.3c0.4-0.1,1.2,0.2,1.2-0.2c0-0.2-3.2,3.1-4.7,1.5
		c-0.2-0.2,0.5-0.3,0.8-0.5c0.5-0.2,4.7-2.6,4.6-2.9c-0.2-1.3-5.1,2.1-5.7,2.5c-0.6,0.3,1.4-0.2,2-0.5c0.6-0.4,5-4.6,4.7-4.8
		c-1.8-1.3-6.4,4-7.3,5.1c-0.2,0.2,2.5-1.4,2.7-1.6c1.1-1.1,4.6-4.3,4.6-6c0-2.6-9.1,4.6-6.5,6.6c1,0.8,4.8-5.1,5.2-5.5
		c0.5-0.6,2.1-1.2,1.5-1.7c-0.2-0.3-1.7,0.9-1.8,1c-0.8,0.6-6.6,4.9-6.2,6.1c0.7,2.1,6.7-5.7,6.4-5.8c-1.1-0.3-6,3.9-5.3,4.7
		c1.1,1.1,6.5-5,6.5-5.7c0-0.8-5.4,3.6-4.9,3.7c1.5,0.5,3.2-3.4,3.9-4.1c0.3-0.2,1.3-0.7,0.9-0.7c-3-0.4-4,6.8-2.4,2.8
		c0.2-0.5,0.4-0.9,0.6-1.3c0.2-0.5,0.5-0.9,0.7-1.4c0.2-0.5,0.5-1,0.7-1.6c0.2-0.6,0.7-1.1,1-1.7c0.4-1-2.3,2.2-1.4,3.6
		c0.3,0.5,0.1-1.1,0.2-1.7c0.1-1.2-0.2-2.9,0.8-3.6c0.1-0.1-2.3,4-1.1,4.4c0.1,0.1,1.6-3.6,1.6-3.6c-0.9,0.4-1.3,2.4-1.3,3.3
		c0,0.4,0.1,1.4,0.1,1.1c0.1-1.1,0.1-2.3,0.2-3.4 M421.8,379.7c0,1.1,0,2.3,0.1,3.4c0.1,1,2-5.4-0.4-4.7c-1.7,0.5-0.2,4.9,0.9,4.5
		c2-0.8,0.6-5.5-0.3-5.3c-1.8,0.5-0.5,6.2,0.1,5.9c1.7-0.9,0-4.7-0.6-4.3c-1.6,1,1,9.1,3.2,8.4c2.6-0.9-3.1-5.2-3.2-5
		c-0.5,1.9,3.5,7.6,4.7,6c1.4-1.8-3.2-6.2-4.6-5.4c-2.6,1.3,3.1,9,5.9,7.9c3.7-1.4-4.1-8-5.1-6.7c-2.5,3.2,6.4,11.2,6.9,7.2
		c0.3-2.2-5.4-8.8-7.9-8.7c-2.9,0.1,4.1,11.8,6.5,8.8c2.9-3.5-5.5-10.1-6.9-8.4c-2,2.5,3,9.3,5.6,10.1c0.2,0.1,1.3,0.6,1.6,0
		c1.5-3-6.9-8.8-7.5-7.2c-0.9,2.2,4.3,9.3,6.6,7.5c3.3-2.5-5.7-6.2-5.8-4.5c-0.1,2.4,2.4,3.8,4.2,4.8c0.3,0.2,0.7,0.8,0.8,0.5
		c0.9-2-1.5-2.6-3.1-3.4c-0.1-0.1-0.8-0.3-0.9,0c-0.5,1.7,3.2,4.7,4.6,3.5c2.3-1.9-5.7-4.2-5.7-4.2c0.1,0.9,4,5.4,5,4.1
		c1.1-1.4-3.5-4.8-4.9-4.3c-4.2,1.4,5.2,6,4.7,4.1c-0.6-2.3-6.9-4.7-4.9-1.7c1.5,2.3,11.3,4.1,10.2,1.2c-0.6-1.6-7.2-4.9-6.8-3.7
		c1,3.3,6.3,3.9,9,4.3c0.5,0.1,1.4,0.4,1.4,0c0-3.4-3.9-4.9-6.8-5.8c-0.2-0.1-1.4-0.2-1.5,0.3c-0.4,3.1,3.4,4.2,5.7,4.8
		c1,0.2,3,1.4,3,0.5c-0.2-3.9-9.1-6.7-9.2-4.7c-0.1,3.8,5.7,4.8,8.2,6.3c1,0.6-5.5-6.4-5.4-2.7c0.1,2.6,7,6.7,7,3
		c0-1.4-7.5-4.3-7.6-1.9c-0.1,2.1,4.5,5,6.4,3.3c1.7-1.5-4.8-4.7-4.5-3.4c0.7,3,6.5,4,9.1,3c0.2-0.1,0.5-0.3,0.5-0.5
		c-0.3-2.7-7.1-5-7.9-3.6c-1.5,2.8,5.2,4,6.3,2.3c1.6-2.6-4-6.1-5.8-4.2c-4.7,5.2,15.3,6.2,5.7,0.4c-0.7-0.4-1.4-0.7-2.1-1
		c-0.6-0.2-1.2-0.2-1.7-0.2c-5.9,0,1.3,6.2,4.9,6.6c0.5,0.1,1.6,0,1.4-0.4c-3-9.2-11.2,2.1-4.7,2.4c3.8,0.2-1.9-3.1-1.5-2
		c0.5,1.4,2.1,1.5,3.2,0.6c1.2-0.9-0.8-2-0.5-2.6c0.2-0.4,8.2-1.3,4.5-3.8c-4.2-2.7-6.9,4.3,1.5,4.3c0.4,0,1.8,0.1,1.9-0.8
		c1-6.7-11.5-4.8-7-0.2c1.9,2,6.3,0.7,3.9-2.4c-0.6-0.8-2.9-2.2-2.9-1.2c0.2,3.1,8.6,4.1,8,0.9c-0.3-1.8-4.3-2.9-4.3-0.5
		c0,0.8,3.2,5.7,4,3.9c0.8-1.8-0.7-2.5-1.8-3.5c-0.5-0.5-1.5-2.3-1.5-1.6c0,0.7,3.6,4.4,3.9,4.2c1.6-1.4-0.8-2.5-1.8-3.4
		c-0.3-0.2-0.7-0.9-0.8-0.6c-1.2,2.1,2,3.3,2.6,5.3c0.1,0.5,0.9-0.4,1.2-0.8c0.5-0.9-1.6-3.5-1.9-2.5c-0.2,0.7,2.2,5.9,3,3.7
		c1-2.7-7.5-2-8.4-1.6c-0.1,0-1.4,0.7-1.4,0.7c1,1.3,9.1,1.3,9.4,0.5c0.9-2.1-7.4-4.7-7.4-2.6c0,1.1,6.6,3.9,7.3,3
		c0.1-0.1-0.9-1-0.9-1.1c-0.8-0.7-7.3-2.9-7.1-0.5c0.1,1.2,7.6,2,8,1.4c0.7-1.2-4.7-3.8-5.2-3.8c-0.1,0-1.2-0.2-1.2,0
		c-0.2,1.6,4.6,1.4,4.7,1.2c0.4-1-1.6-3-1.8-2.7c-1,1.3,1.3,3.1,2.5,2.3c1.4-1-1.4-3.6-2.4-3.2c-2,0.7,0.1,3.9,1.8,3.2
		c2.3-0.9,0.3-5.4-1.3-4.7c-1.5,0.7,0,3.9,1.2,4.3c3.7,1.3,1.9-5.6,1-5.5c-1.2,0-1,0.1-0.9,1.2c0.3,3.7,3.2-0.1,1.3-2.5
		c-1.5-1.7-1.3,3.9-0.5,4.9c0.3,0.4,0.8-1,0.5-1.4c-0.8-1.2-1.9,0.3-2.8,0.3c-0.3,0-0.9-1-1.4-0.6c-1,0.9-0.2,2.3,0.8,2.8
		c4.9,2.3,1.6-2.6,1.6-2.5c-1,1,0.9,5.4,2.5,4.3c1.4-0.9-0.3-6.7-1.7-6.1c-1.5,0.6,0.2,6.5,1.3,5.6c1.3-1-0.9-6.3-1.9-5.9
		c-1.8,0.9,0.2,3.7-0.1,4.9l0,0c1.7,1,0.8-2.6,0.6-3.1c-0.1-0.5-1.4-0.9-0.9-1.1c0.7-0.3,0.8,1.3,1.1,2c0.2,0.4,1.4,2.2,1.4,2.4
		c0,0-0.6-2-0.7-2.2c-0.3-1.3-0.3-1.3-1.1-2c-0.4-0.3,0.4,0.9,0.5,1.4c0.2,0.8,0.3,1.8,0.7,2.5c0.1,0.2,0.8,0.6,0.6,0.6
		c-0.9,0-2.6-2.7-2.5-2.6c0.5,0.4,1.9,1.3,1.3,1.3c-0.9,0-2-0.2-2.5-0.8c-0.2-0.3-1.5-0.4-1.1-0.4c0.8,0,4.8,0.3,4.9,0.2
		c0.2-0.5-0.8-2.5-1-2.9c-0.1-0.4-0.9-1.4-0.6-1.1c0.5,0.5,1.1,2.5,1.3,3.1c0.2,0.8-0.8-1.7-1.6-2c-0.1,0,1.6,3.8,0.8,4.1
		c-0.6,0.2-2.2-2.6-2.2-2.6c2.7,0.4,1.3,4.7-0.8,1.8c-0.6-0.8,1.9,0.5,2.7,1c0.3,0.2-0.8,0.1-1.1-0.1c-1.1-0.6-0.6-0.9-1.9-0.1
		c-0.7,0.4,3.2,0.9,2.3,1c-1,0.2-2.7-0.2-3.8-0.4c-0.4-0.1-1.2,1-0.8,1c1.5-0.1,4.5,1.8,4.9,2.5c0.2,0.4,1.4-0.3,1.3,0.1
		c-0.2,0.8-1.4-0.9-2.2-0.9c-2.7-0.1-3.7-0.6-4.9,0.4c-0.3,0.2,0.7-0.2,1.1-0.3c0.7-0.1,1.3,0,1.9,0.2c1.6,0.4,3,1.7,4.3,1.2
		c0,0-1.8-1.5-1.8-1.5c-1.3-0.7-3.3-1.7-4.8-1.7c-0.3,0-0.5,1.1-0.2,1c2.2-1,4.5,0.4,5.8,2.3c0.1,0.2,0.3,0.6,0.6,0.6
		c0.3,0,0.6-0.2,0.8-0.4c0.3-0.4-0.2-0.7-0.4-0.9c-2.2-1.5-5.8-1.7-8.4-1c-0.1,0-0.7,0.4-0.7,0.4c0,1.6,8.4,0.1,9.5,0.8
		c0.5,0.3-0.6-0.9-1-1.4c-0.9-1.1-1.2-2.2-2.8-1.6c-1.8,0.6,3.9,3.7,2.8,2.1c-1-1.5-2.5-4.3-4.5-3.6c-0.5,0.2,0.8,0.6,1.2,0.9
		c0.9,0.9,1.5,2.3,3,1.2c0.1-0.1-4.7-3.3-5.2-3.2c-1.2,0.2,0.3,1.4,0.3,1.5c1.2,1.2,2.5,1.7,3.4,2.4c0.4,0.3-2.6-1-3.3-2.4
		c-0.3-0.7,2.9,0.2,2.8,0.3c-1.4,0.7-5.7,0.4-7-0.1c-0.3-0.1,0.7,0.1,1,0.3c0.2,0.2,1.8,1.1,1.8,1.4c0.1,0.5-4.7,0.4-3.6-1.3
		c0.8-1.4,5.1,0.6,6,1.1c0.1,0.1,0.2,0.4,0.1,0.5c-0.8,0.5-5.4-0.1-6.1-0.7c-0.1-0.1,3.5-1.4,3.3-1.1c-0.4,0.9-3.7,1-4.6,1.8
		c-2.4,2,0.4,2.2,0.3,2.5c-0.2,0.4-2.7,0.3-2.6,0.7c0,0.4-0.1,1.5,0.2,1.2c1.9-1.6,2.1,0.2,0.2-1.9c-0.3-0.3-0.9-0.6-0.3-1.2
		c1.3-1.3,2.7,0.5,3.9,0.6c0.6,0.1,2.5-0.4,1.9-0.1c-1.8,1.1-6-2-7.2-3.1c-0.2-0.1-0.3-0.4-0.2-0.6c0.7-0.9,6.1,0.8,6.6,1.5
		c0.7,0.9-2.2,0.8-3.4,0.7c-0.8,0-3.1-0.6-3.5-1.5c-0.3-0.7,4.7,0.1,5,1.4c0.2,0.8-3.4,0.3-3.8,0.3c-0.3,0-1.5,0.2-1.8,0.1
		c-0.8-0.3,1.6-0.3,2.4-0.1c1.6,0.4,2.9,0.7,4.4,1c0.2,0,0.3,0.3,0.2,0.4c-1.1,1-5-0.1-6.3-0.4c-0.9-0.2-3.2,0.3-2.8-0.6
		c0.2-0.4,2.8,1.4,2.9,1.5c0.2,0.1,1.3-0.5,1.6-0.1c0.3,0.5-1.1,0.2-1.6,0.1c-0.6-0.1-4.6-1-4.3-1.8c0.1-0.2,0.5-0.2,0.8-0.2
		c2.7,0.3,3.5,2.4,6,1.8c0.1,0-0.1,0.1-0.2,0.1c-0.8,0-6.6-1.7-6.2-2.8c0.3-0.7,3.7,1.8,4,1.8c0.6,0,2.3-0.6,1.7-0.8
		c-2.5-0.7-6.2-2-8.1-3.9c-0.2-0.2-0.5-0.6-0.3-0.8c1.3-1.6,6,3.2,7.1,3.5c0.6,0.1,2.3-0.6,1.7-0.4c-1.4,0.3-8.7-2.6-8.4-2.9
		c1.2-1.5,4.9,3,6.1,3.3c0.6,0.1,2.2-0.2,1.7-0.1c-1.8,0.6-8.7-0.9-10.1-2.6c-0.4-0.5,1.3,0.3,1.9,0.6c1.7,1,2.7,2.5,4.5,2.9
		c1,0.2-1.9,0.4-2.9,0.3c-0.5,0-0.9-0.1-1.4-0.2c-1.2-0.2-5.1-1.4-5.7-2.1c-0.6-0.6,1.6,0.7,2.3,1.2c0.4,0.3,0.7,0.7,1.2,0.8
		c0.5,0.1,1.1-0.8,1.3-0.4c0.2,0.3-2.6-0.9-2.7-0.9c-0.3-0.2-2-1-2.1-1.2c-0.3-1,1.9,0.8,2.7,1.4c1.3,0.9,1.3,0.9,2.8,0.7
		c0.6-0.1-1.2-0.2-1.7-0.5c-1.2-0.8-2.6-1.3-3.6-2c-0.5-0.4,1.1,0.7,1.6,1.1c2,1.4,2.2,1.2,4.2,1.5c0.3,0-0.7,0-1.1-0.1
		c-0.9-0.3-1.8-1.2-2.6-1.4c-0.4-0.1-1.2,0.2-1.2-0.2c0-0.2,3.1,3.2,4.7,1.6c0.2-0.2-0.5-0.3-0.8-0.5c-0.5-0.3-4.6-2.7-4.5-3.1
		c0.3-1.3,5,2.3,5.6,2.7c0.6,0.4-1.4-0.2-2-0.6c-0.6-0.4-4.8-4.8-4.5-5c1.8-1.3,6.2,4.2,7.1,5.4c0.2,0.2-2.4-1.5-2.6-1.7
		c-1-1.2-4.5-4.5-4.4-6.2c0-2.6,8.9,4.9,6.2,6.8c-1.1,0.7-4.6-5.2-5-5.7c-0.5-0.6-2-1.2-1.5-1.8c0.3-0.2,1.6,1,1.8,1.1
		c0.8,0.7,6.4,5.1,6,6.3c-0.8,2.1-6.5-5.9-6.2-6c1.1-0.2,5.9,4.1,5.1,4.9c-1.1,1-6.3-5.2-6.3-5.9c0-0.8,5.3,3.7,4.8,3.9
		c-1.5,0.4-3.1-3.5-3.8-4.2c-0.3-0.3-1.2-0.7-0.9-0.7c3-0.3,3.7,7,2.3,2.8c-0.2-0.5-0.3-0.9-0.5-1.4c-0.2-0.5-0.4-1-0.6-1.4
		c-0.2-0.5-0.4-1.1-0.6-1.6c-0.2-0.6-0.7-1.1-0.9-1.8c-0.4-1,2.2,2.3,1.3,3.6c-0.3,0.5-0.1-1.1-0.1-1.7c0-1.2,0.3-2.9-0.7-3.6
		c-0.1-0.1,2.1,4,1,4.4c-0.1,0.1-1.5-3.7-1.4-3.7c0.9,0.4,1.3,2.4,1.2,3.3c0,0.4-0.1,1.4-0.1,1.1c-0.1-1.1-0.1-2.3-0.1-3.4
		 M321.3,377.5c2.2-6.5,8.8-9.7,15.5-9.6c2,0,7,1,7.4,3.5l-0.1,0c-7.4-4.8-18.3-1.9-22.1,6.2 M447.9,378.7c-2-6.5-8.4-9.9-15.1-10.1
		c-2,0-7,0.8-7.5,3.2l0.1,0.1c7.5-4.5,18.3-1.3,21.8,6.9 M323.2,375.3c-0.9,2.9-1.5,5.2-1.3,8.2l0,0c-1.1-3,0.1-5.5,1.2-8.3
		 M446.1,376.4c0.8,2.9,1.4,5.3,1,8.2l0,0c1.2-2.9,0.1-5.5-0.9-8.3 M322.2,375.7c3.3-5.8,8.8-8.5,15.5-7.1c1.2,0.2,7.5,2.4,7.2,4.3
		l-0.1,0.1c0.3,0-0.8-0.1-0.9-0.4c-0.1-0.4-1.2-0.9-1.7-1.2c-1.7-1.2-3.9-1.5-5.9-1.9c-5.9-1.2-10.5,1.9-13.8,6.5 M447.1,376.8
		c-3.1-5.9-8.5-8.8-15.2-7.6c-1.2,0.2-7.6,2.1-7.4,4l0.1,0.1c-0.3-0.1,0.8-0.1,0.9-0.4c0.2-0.4,1.2-0.9,1.7-1.2
		c1.8-1.2,3.9-1.4,6-1.7c5.9-0.9,10.4,2.2,13.5,6.9 M327.8,367.3c3.4-3.5,11.4-2,14.5,1.4l-0.1,0.1c-4.2-2.2-10-4.5-14.2-1.3
		 M441.7,368.3c-3.3-3.6-11.2-2.4-14.5,0.9l0.1,0.1c4.3-2,10.1-4.1,14.2-0.8 M321.7,399.8c-2.5-2.5,1.3-6.7,4.3-6.2
		c0.9,0.1,1.7,0.6,2.5,0.9c0.1,0,0.2,0,0.2,0c-0.9,1.1-3.8-0.3-5.4,0.7c-1.2,0.8-2.1,3.2-1.4,4.2c0.2,0.2-0.6,0-0.8-0.1
		c-0.3-0.1,0.1-1.8,0.2-2.1c1-2.4,4.2-2.9,6.5-2.4c0.5,0.1,2.6,1.6,2.7,1.6c0,0,0-0.1,0-0.1c-0.2-0.2-0.2,0.5-0.3,0.7
		c-0.4,0.4-1-0.5-1.5-0.7c-1.5-0.5-4.1-1.8-5.7-1c-0.5,0.3-1.6,2.4-2,2.4c-0.8-0.1-0.7-3.5-0.2-3.3c0.7,0.3,1.2,2.5,0.5,2.3
		c-0.5-0.1-0.9-1.6-0.4-1.4c1,0.4,0.8,4.2,1.2,5.5c0.2,0.5,1.7,3.6,0.8,3.1c-0.2-0.1-0.6-1.7-0.7-1.9c-1.3-3.7-0.1-7.5,3.8-8.8
		l0.1,0.2c-2,1.3-3.9,3.1-4,5.6c0,1.2,1.8,4.7,0.8,5.1c-0.3,0.1-0.3-0.6-0.5-0.8c-0.9-1-2.4-6.5-1.5-7.5c1.3-1.5-0.1,2.9-0.3,0.4
		c-0.1-1.3,0-0.7,0.6-1.3c0.3-0.3-0.1,0.9-0.1,1.4c0.1,0.9,0.1,0.6-0.4,1.2c-0.3,0.4,0.4-0.9,0.7-1.3c0.4-0.6,0.8-1.1,1.4-1.3
		c1.4-0.6,6.7,0.2,7.7,1.7c0.7,1.1-3.9-1-5.1-0.8c-3.3,0.7-2.9,3.5-4.3,4c-0.2,0.1,0.1-2.6,0.4-3.1c0.9-1.9,3.3-2.7,5.2-2.4
		c0.1,0,2,0.3,2,0.6c0.1,0.6-3.9-0.4-5,0C321.5,395.3,321.8,398,321.7,399.8 M446.8,400.9c2.6-2.5-1.1-6.7-4-6.3
		c-0.9,0.1-1.7,0.5-2.6,0.8c-0.1,0-0.2,0-0.2,0c0.9,1.2,3.8-0.2,5.4,0.9c1.2,0.8,2,3.2,1.2,4.3c-0.2,0.2,0.6,0,0.8-0.1
		c0.3-0.1,0-1.8-0.1-2.1c-0.9-2.4-4.1-3.1-6.4-2.6c-0.5,0.1-2.7,1.5-2.7,1.5c0,0,0-0.1,0-0.1c0.2-0.2,0.1,0.5,0.3,0.7
		c0.4,0.4,1-0.5,1.5-0.7c1.5-0.5,4.1-1.6,5.7-0.8c0.5,0.3,1.6,2.5,1.9,2.4c0.8-0.1,0.8-3.4,0.3-3.3c-0.7,0.2-1.3,2.4-0.6,2.2
		c0.5-0.1,1-1.6,0.5-1.4c-1.1,0.3-0.9,4.2-1.4,5.4c-0.2,0.5-1.9,3.5-0.9,3.1c0.2-0.1,0.7-1.7,0.8-1.9c1.4-3.6,0.3-7.4-3.5-8.9
		l-0.1,0.2c1.9,1.3,3.8,3.2,3.8,5.8c0,1.2-1.9,4.6-1,5.1c0.3,0.1,0.3-0.6,0.5-0.8c1-1,2.6-6.4,1.7-7.4c-1.3-1.5,0,2.9,0.3,0.4
		c0.1-1.3,0-0.7-0.6-1.4c-0.3-0.3,0.1,0.9,0,1.4c-0.1,0.9-0.1,0.6,0.3,1.2c0.3,0.4-0.4-0.9-0.7-1.4c-0.4-0.6-0.7-1.1-1.4-1.4
		c-1.4-0.6-6.7,0-7.7,1.5c-0.7,1.1,4-0.9,5.1-0.6c3.2,0.8,2.8,3.6,4.1,4.1c0.2,0.1,0-2.6-0.3-3.1c-0.9-1.9-3.2-2.8-5.1-2.6
		c-0.1,0-2,0.2-2.1,0.5c-0.1,0.6,3.9-0.3,5,0.1C447.1,396.4,446.7,399.1,446.8,400.9 M343.2,394.3c1.3-0.4,3.1,0.1,3.9,1.2
		c0.5,0.7,0.4,3.2,0.4,2.4c0-0.3-0.7,0-0.8-0.2c-0.6-1.3,0.3-2.3-0.8-3.6c-0.3-0.3-1.7,0.1-1.3-0.9c0.8-1.9,3.1,2.4,3.1,3
		c0,3.6-2,3.9-0.5,0.5l0.2,0.1c-1.6,6-0.5-2.3-2.3-3.8c-0.4-0.3,1.2,0.3,1.6,0.7c0.5,0.6,1.5,4.3,0.6,4.7c-0.2,0.1-1.2-3.2-3.8-3.3
		 M425.5,394.7c-1.3-0.4-3,0-3.9,1.1c-0.5,0.6-0.5,3.1-0.5,2.3c0-0.3,0.7,0,0.8-0.2c0.6-1.2-0.2-2.3,0.9-3.6
		c0.3-0.3,1.6,0.1,1.3-0.8c-0.7-1.9-3.2,2.2-3.2,2.9c-0.1,3.6,1.8,3.9,0.5,0.5l-0.2,0c1.4,6,0.5-2.3,2.4-3.7
		c0.5-0.3-1.2,0.2-1.6,0.6c-0.5,0.5-1.7,4.2-0.8,4.6c0.2,0.1,1.3-3.1,3.9-3.2 M348.4,395.7c-0.8,3-2.2,5.5-3.6,8.1
		c-0.8,1.5-1.8,3-2.8,4.4c-1.1,1.5-5.5,4.8-6.2,3.4c-0.1-0.3,0.6-0.2,0.8-0.3c0.8-0.5,1.7-0.9,2.4-1.4c1.6-1.2,3.4-3,4.5-4.7
		c1-1.5,4.2-9.4,4.9-9c0.3,0.2-2.5,5.4-2.7,5.7c-1.7,3-4,6.1-6.7,8.3c-0.8,0.7-2.3,1.8-3,2c-0.4,0.1-1.3-0.2-1.2,0.2
		c0.1,0.6,1-0.5,1.5-0.7c1-0.4,2.2-1.1,3-1.7c4.4-3.1,6-8.2,8.6-12.7l0,0c-0.7,2.8-2,5.2-3,7.8c-1,2.5-3.4,5.3-6,6.3
		c-0.3,0.1-5,2.4-4.5,0.8c0.2-0.6,1.4-1.2,1.7-0.7c0.3,0.6,1-0.9,1.5-1.3c2.3-1.7,4.8-4.4,6.2-6.9c0.6-1.1,3.4-7.8,4.7-7.5
		c0.3,0.1-1.6,4.2-1.7,4.6c-1.4,4.1-3.9,7.7-7.4,10.3c-0.6,0.4-3.5,2.6-4.1,1.4c-0.2-0.4,1.2-0.5,1.4-0.6c1.3-1.2,2.9-1.7,4.2-3.3
		c2.7-3.1,5.8-8.5,6.7-12.6 M420.3,395.9c0.7,3,2,5.5,3.4,8.2c0.8,1.5,1.7,3.1,2.6,4.5c1.1,1.6,5.4,5,6,3.6c0.1-0.3-0.5-0.2-0.8-0.4
		c-0.8-0.5-1.6-1-2.4-1.5c-1.6-1.2-3.3-3.1-4.3-4.8c-1-1.5-3.9-9.5-4.6-9.1c-0.3,0.1,2.3,5.5,2.5,5.8c1.6,3,3.8,6.2,6.4,8.5
		c0.8,0.7,2.2,1.9,2.9,2.1c0.4,0.1,1.3-0.1,1.2,0.3c-0.1,0.5-1-0.5-1.5-0.8c-0.9-0.4-2.1-1.1-2.9-1.8c-4.3-3.2-5.7-8.4-8.2-13l0,0
		c0.6,2.8,1.8,5.2,2.8,7.8c1,2.5,3.2,5.4,5.8,6.5c0.3,0.1,4.9,2.5,4.4,1c-0.2-0.6-1.4-1.2-1.7-0.7c-0.3,0.6-1-0.9-1.5-1.3
		c-2.2-1.7-4.6-4.5-5.9-7.1c-0.6-1.2-3.1-7.9-4.4-7.7c-0.3,0.1,1.4,4.3,1.5,4.6c1.2,4.1,3.6,7.8,7,10.5c0.6,0.5,3.4,2.7,4.1,1.5
		c0.2-0.4-1.2-0.6-1.3-0.7c-1.2-1.2-2.8-1.8-4.1-3.4c-2.6-3.2-5.5-8.7-6.3-12.7"/>
</g>
<g>
</g>
<g>
</g>
<g>
</g>
<g>
</g>
<g>
</g>
<g>
</g>
<g>
</g>
<g>
</g>
<g>
</g>
<g>
</g>
<g>
</g>
<g>
</g>
<g>
</g>
<g>
</g>
<g>
</g>
</svg>
