<?xml version="1.0" encoding="utf-8"?>
<!-- Generator: Adobe Illustrator 22.0.1, SVG Export Plug-In . SVG Version: 6.00 Build 0)  -->
<svg version="1.1" id="Layer_1" xmlns="http://www.w3.org/2000/svg" xmlns:xlink="http://www.w3.org/1999/xlink" x="0px" y="0px"
	 viewBox="0 0 1200 1200" style="enable-background:new 0 0 1200 1200;" xml:space="preserve">
<style type="text/css">
	.st0{display:none;fill:#FCC419;stroke:#FCC419;stroke-width:3;stroke-linejoin:round;}
	.st1{display:none;fill:#868E96;stroke:#868E96;stroke-width:0.25;stroke-linejoin:round;}
	.st2{display:none;}
	.st3{display:inline;fill:#FCC419;stroke:#000000;stroke-width:6.34;stroke-linecap:round;stroke-linejoin:round;}
	.st4{display:inline;fill:#FFFFFF;stroke:#FFFFFF;stroke-width:0.1;stroke-linejoin:round;}
	.st5{display:inline;stroke:#000000;stroke-width:0.1;stroke-linejoin:round;}
	.st6{display:inline;fill:#FFFFFF;stroke:#000000;stroke-width:0.1;stroke-linejoin:round;}
	.st7{display:inline;fill:#FFFFFF;stroke:#FFFFFF;stroke-width:1.36;stroke-linejoin:round;}
	.st8{display:inline;stroke:#000000;stroke-width:1.36;stroke-linejoin:round;}
	.st9{display:inline;fill:#FFFFFF;stroke:#000000;stroke-width:1.36;stroke-linejoin:round;}
	.st10{display:inline;stroke:#000000;stroke-linecap:round;}
	.st11{display:inline;fill:#003087;stroke:#000000;stroke-width:5.19;stroke-linejoin:round;}
	.st12{display:inline;fill:#FFFFFF;stroke:#000000;stroke-width:5.15;stroke-linejoin:round;}
	.st13{display:inline;fill:#FFFFFF;stroke:#000000;stroke-width:4.95;stroke-linecap:round;stroke-linejoin:round;}
	.st14{display:inline;}
	.st15{display:inline;fill:#FFFFFF;stroke:#000000;stroke-width:5.09;stroke-linejoin:round;}
	.st16{display:inline;fill:#FFFFFF;stroke:#000000;stroke-width:4.93;stroke-linejoin:round;}
	.st17{display:inline;fill:#ADB5BD;stroke:#ADB5BD;stroke-linejoin:round;}
	.st18{display:inline;fill:#228BE6;stroke:#228BE6;stroke-linejoin:round;}
	.st19{display:inline;fill:#FFD43B;stroke:#FFD43B;stroke-linejoin:round;}
	.st20{display:inline;stroke:#000000;stroke-width:2.12;stroke-linejoin:round;}
	.st21{display:inline;fill:#FFFFFF;stroke:#000000;stroke-width:8;stroke-linejoin:round;}
	.st22{display:inline;stroke:#000000;stroke-width:7;stroke-linejoin:round;}
	.st23{display:inline;stroke:#000000;stroke-width:5.1;stroke-linejoin:round;}
	.st24{display:inline;fill:#099268;}
	.st25{display:inline;fill:#FFFFFF;}
	.st26{display:inline;fill:#FCC419;stroke:#000000;stroke-width:8;}
	.st27{display:inline;fill:none;}
	.st28{fill:#FFFFFF;}
	.st29{stroke:#000000;stroke-width:2.12;stroke-linejoin:round;}
	.st30{fill:#FFFFFF;stroke:#000000;stroke-width:5.1;stroke-linejoin:round;}
	.st31{fill:#FA5252;stroke:#FA5252;stroke-width:5.21;}
	.st32{stroke:#000000;stroke-width:5.1;stroke-linejoin:round;}
	.st33{fill:#FFFFFF;stroke:#FFFFFF;stroke-miterlimit:10;}
	.st34{fill:#495057;stroke:#495057;stroke-width:5.21;}
	.st35{fill:#FFD43B;stroke:#FFD43B;stroke-width:5.21;}
	.st36{fill:#495057;stroke:#495057;stroke-miterlimit:10;}
</style>
<rect x="-0.5" y="0.5" class="st0" width="1200" height="854"/>
<rect x="0.5" y="854.5" class="st1" width="1199" height="345"/>
<g class="st2">
	<path class="st3" d="M785,668l9.4,21.9L804,719l4.2,17c1.2,5,1.9,10.1,2.1,15.3l0.7,22.4L810,789l-4,12l0,0l-2.2,6.7l-2.2,4.8
		l-3.5,6.6l-4.6,9.6l-5.1,9.7l-3.9,5l-4.3,3.6l-19.6,0.3l-340.2-1l-9.2-10.1l-6.4-9.3l-6.2-11.8c0,0-1.7-3.6-3.6-11.9
		c-1.9-8.3-4-21.2-4-21.2l-1.8-23.6l-0.2-24.8l3.1-17.9l5-14.7l3.5-10.8L414,668"/>
	<path class="st4" d="M567.6,738.5l-13.4-1l0.7,47.1l13.4,1L567.6,738.5z"/>
	<path class="st5" d="M549.1,729.7c0.4-0.1,0.9-0.1,1.4,0c2,0.6,3.1,2.5,3.6,5.2c0.3,1.6,0.5,3.3,0.7,6c0,0.3,0.2,3.8,0.3,4.6
		c0.4,4,0.7,7.3,1.6,14.6c0,0.2,1.4,12.7,1.9,17.8c0.2,0.7,0.3,1.3,0.5,2.2c0.1,0.5,0.5,3.3,0.6,3.4c0.1,0.2,0.1,0.4,0.2,0.6
		c0,0.2,0,0.4,0.1,0.5c0.2,0,0.3,0,0.6,0.1c1.2,0.2,1.7,0.3,2.3,0.3c1.4,0,2.5-0.4,4.5-1.5c0-0.5,0-1,0-1.7c0-1.7-0.1-3.7-0.1-4.7
		c0-7.9-0.2-14.9-0.7-25.7c0-0.1,0.1-0.1,0.1-0.2c-0.1-0.7-0.3-2.9-0.3-3.4c0,0.3-0.7-5.6-0.9-8.3c-0.2-2.5-0.3-4.5-0.2-6.2
		c0.1-1.9,0.4-3.2,1-4.2c0.2-0.6,0.6-0.9,1.1-1.3c0.1-0.1,0.1-0.2,0.2-0.3c0.1-0.1,0.3-0.2,0.4-0.3c0,0,0,0,0,0l0.5-0.1l0,0.1
		c0.1,0,0.1,0.1,0.2,0.1c0,0,0.1,0,0.1,0l0,0c0.4,0,0.8-0.2,1.2,0c0.8,0.4,1.3,1.2,1.5,2c0.4,0.7,0.8,1.4,1,2.4
		c0.3,1.4,0.5,3,0.7,5.1c0.1,0.8,0.1,1.6,0.2,2.6c0-0.1,0.1,3.5,0.1,3.8c0.2,2,0.4,4,0.7,7.4c0.6,5.9,0.8,7.3,1,10
		c0.7,7.8,0.6,13.8,0,19.4c1.3,0,2.6,0.2,3.8,0.8l0,0c0,0,0.1,0.1,0.1,0.1c0,0,0.1,0,0.1,0l0,0c0.9,0.4,1.7,1.1,2.6,1.9
		c0,0,0.1,0.1,0.1,0.1c0.2,0.2,0.3,0.2,0.5,0.3l0,0c1.3,0.8,2.5,1.8,3.5,3.1c0.1,0.1,0.2,0.2,0.3,0.3c0.1,0.1,0.1,0.2,0.2,0.3
		c0.1,0.1,0.4,0.5,0.5,0.8c0.2,0.4,0.3,0.5,0.4,0.8c0.1,0.2,0.3,0.5,0.4,0.7c0.3,0.6,0.5,1.1,0.7,1.7c0.3,1.1,0.2,2.3-0.4,3.3
		c-0.4,1.9-1.1,3.9-1.9,5.2c0,0,0,0.1,0,0.1c-0.1,0.1-0.1,0.2-0.2,0.3l0-0.1c-1.5,2.7-3.7,4.9-6.3,6.8c0,0.1,0.1,0.3,0.1,0.3
		c0.2,0.7,0.4,1.3,0.5,2c0.1,0.4,0.4,1.4,0.5,1.8c0,0,0.2,0.6,0.2,0.8c0.2,0.7,0.3,1.4,0.5,2.1c0.2,0.9,0.2,1.7,0.2,2.4l0,0
		c1.2,8.9,0.1,14.9-3.4,17.4c0,0-0.3,0.2-0.5,0.3l0-0.1c-1.9,1.4-4.3,1.8-6.9,0.9c-3.4-1.2-5.6-4.2-7.6-8.7l0,0
		c0-0.1-0.1-0.2-0.1-0.2c-0.1-0.1-0.1-0.2-0.1-0.2c0,0,0-0.1-0.1-0.1c-2.5-4-4.1-8.4-4.4-12.7c-0.2-0.7-0.4-1.2-0.5-1.8
		c-2.4-0.7-4.4-1.8-6-3.5c-1.7-1.9-3.6-5.9-4.6-9.6c-1.4-5.1-1.2-9.6,1.6-12.1c0.6-0.6,1.1-0.7,1.8-0.8c0.1,0,0.4,0,0.7,0
		c-0.1-1.2-1-8.1-1.2-9.4c-1.9-9.5-3-17.4-3.2-24.7c0-0.4-0.5-6-0.6-7.9c-0.2-3-0.3-5.3-0.2-7c0.1-1.4,0.3-2.4,0.7-3.3
		c0.1-0.1,0.2-0.2,0.2-0.3C547.4,731,548.1,730,549.1,729.7z"/>
	<path class="st6" d="M554.5,793.1c0.7,0,1.5,0,2.5,0.2c0.5,0.1,1.1,0.2,1.8,0.4c0.2,0,1.9,0.4,2.2,0.5c0.9,0.2,1.5,0.3,2.2,0.4
		c0.7,0,1.3-0.1,1.8-0.3c1.7,0.1,4.2-0.8,8.6-2.7c0,0,0.4-0.1,0.5-0.1c1-0.4,2,0.5,3.5,2.9c0.3,1,0.2,2-0.3,2.7
		c-2.2,3.4-7.9,5.6-13.4,5.1c-5.6-0.5-9.1-3.3-9.6-7.6C554.4,793.9,554.5,793.6,554.5,793.1z"/>
	<path class="st6" d="M566.3,813.2c0.2,0.7,0.5,1.7,0.7,2.2c0.2,0.5,0.4,1.1,0.6,1.8c0.1,0.3,0.6,2,0.7,2.5c0.3,1,0.6,1.8,0.9,2.6
		c1.7,4.6,3,6.1,4.7,5.3c0.6-1.7,0.8-3.8,0.6-7.2c-0.4-2.2-0.9-4.5-1.5-6.6c0,0.1-0.3-1-0.5-1.6c0-0.1-0.1-0.3-0.1-0.4
		C570.3,812.5,568.3,813,566.3,813.2z"/>
	<path class="st7" d="M632.1,735.3l14.4-6.8l-1,58l-13.3-4.1L632.1,735.3z"/>
	<path class="st8" d="M650.5,729c-0.4-0.1-0.9-0.1-1.4,0c-2,0.7-3,2.6-3.5,5.3c-0.3,1.6-0.5,3.3-0.6,6.1c0,0.3-0.1,3.8-0.2,4.6
		c-0.3,4-0.6,7.3-1.3,14.6c0,0.2-1.2,12.8-1.6,17.8c-0.2,0.7-0.3,1.3-0.4,2.2c-0.1,0.5-0.5,3.3-0.5,3.4c-0.1,0.2-0.1,0.4-0.1,0.6
		c0,0.2,0,0.4-0.1,0.5c-0.2,0.1-0.3,0-0.6,0.1c-1.2,0.3-1.7,0.4-2.3,0.4c-1.4,0-2.5-0.4-4.5-1.4c0-0.5,0-1,0-1.7c0-1.7,0-3.7,0-4.7
		c-0.2-7.9-0.1-14.9,0.3-25.7c0-0.1-0.1-0.1-0.1-0.2c0.1-0.7,0.2-2.9,0.3-3.4c0,0.3,0.6-5.7,0.8-8.3c0.2-2.5,0.2-4.5,0.1-6.2
		c-0.1-1.9-0.5-3.2-1-4.2c-0.2-0.6-0.6-0.9-1.1-1.3c-0.1-0.1-0.1-0.2-0.2-0.3c-0.1-0.1-0.3-0.2-0.5-0.3c0,0,0,0,0,0l-0.5-0.1l0,0.1
		c-0.1,0-0.1,0.1-0.2,0.1c0,0-0.1,0-0.1,0l0,0c-0.4,0-0.8-0.2-1.2,0c-0.8,0.4-1.2,1.2-1.5,2.1c-0.4,0.7-0.7,1.4-0.9,2.4
		c-0.3,1.4-0.5,3.1-0.6,5.1c0,0.8-0.1,1.6-0.1,2.6c0-0.1,0,3.5-0.1,3.8c-0.1,2-0.3,4-0.6,7.4c-0.5,6-0.6,7.3-0.8,10.1
		c-0.5,7.8-0.3,13.9,0.3,19.4c-1.3,0-2.6,0.3-3.8,0.9l0,0c0,0-0.1,0.1-0.1,0.1c0,0-0.1,0-0.1,0l0,0c-0.9,0.4-1.7,1.1-2.6,1.9
		c0,0-0.1,0.1-0.1,0.1c-0.2,0.2-0.3,0.2-0.5,0.4l0,0c-1.3,0.9-2.5,1.8-3.5,3.1c-0.1,0.1-0.2,0.2-0.3,0.3c-0.1,0.1-0.1,0.2-0.2,0.3
		c-0.1,0.1-0.4,0.5-0.5,0.8c-0.2,0.4-0.3,0.5-0.4,0.8c-0.1,0.2-0.2,0.5-0.4,0.7c-0.3,0.6-0.5,1.2-0.7,1.7c-0.3,1.1-0.1,2.3,0.5,3.3
		c0.4,1.9,1.1,3.9,2,5.2c0,0,0,0.1,0.1,0.1c0.1,0.1,0.1,0.2,0.2,0.3l0-0.1c1.5,2.6,3.8,4.8,6.4,6.6c0,0.1-0.1,0.3-0.1,0.3
		c-0.2,0.7-0.4,1.3-0.5,2c-0.1,0.4-0.4,1.4-0.5,1.8c0,0-0.2,0.6-0.2,0.8c-0.2,0.7-0.3,1.4-0.4,2.1c-0.2,0.9-0.1,1.7-0.1,2.5l0,0
		c-1,8.9,0.1,14.9,3.7,17.3c0,0,0.3,0.2,0.5,0.3l0-0.1c2,1.4,4.3,1.7,6.9,0.7c3.3-1.3,5.6-4.3,7.4-8.9l0,0c0-0.1,0.1-0.2,0.1-0.3
		c0.1-0.1,0.1-0.2,0.1-0.2c0,0,0-0.1,0.1-0.1c2.5-4.1,4-8.5,4.1-12.8c0.2-0.7,0.4-1.2,0.5-1.8c2.3-0.8,4.4-1.9,5.9-3.7
		c1.7-2,3.5-6,4.4-9.7c1.3-5.1,1-9.6-1.8-12.1c-0.6-0.6-1.1-0.7-1.8-0.7c-0.1,0-0.4,0-0.7,0c0.1-1.2,0.9-8.2,1-9.4
		c1.7-9.5,2.7-17.5,2.7-24.7c0-0.4,0.4-6,0.5-7.9c0.2-3,0.2-5.3,0-7c-0.1-1.4-0.3-2.4-0.8-3.3c-0.1-0.1-0.2-0.2-0.2-0.3
		C652.2,730.3,651.5,729.3,650.5,729z"/>
	<path class="st9" d="M647.1,792.5c-0.7,0-1.5,0.1-2.5,0.3c-0.5,0.1-1.1,0.2-1.8,0.4c-0.2,0-1.9,0.5-2.2,0.6
		c-0.9,0.2-1.5,0.3-2.1,0.4c-0.7,0.1-1.3-0.1-1.8-0.3c-1.7,0.1-4.2-0.7-8.6-2.5c0,0-0.4-0.1-0.5-0.1c-1-0.3-2,0.5-3.4,3
		c-0.2,1-0.2,2,0.3,2.7c2.3,3.3,8,5.4,13.5,4.8c5.6-0.6,9.1-3.5,9.4-7.8C647.3,793.4,647.2,793,647.1,792.5z"/>
	<path class="st9" d="M635.8,812.9c-0.2,0.7-0.5,1.7-0.7,2.3c-0.2,0.5-0.4,1.1-0.6,1.8c-0.1,0.4-0.6,2-0.7,2.5
		c-0.3,1-0.6,1.8-0.8,2.6c-1.6,4.7-2.9,6.2-4.6,5.4c-0.7-1.7-0.9-3.8-0.7-7.1c0.3-2.2,0.8-4.5,1.4-6.7c0,0.1,0.3-1,0.4-1.6
		c0-0.1,0.1-0.3,0.1-0.4C631.7,812.3,633.7,812.8,635.8,812.9z"/>
	<path class="st10" d="M715.5,765.5c-4.4-1.2-14.2,21.2-21,32c-4.6,7.3-13.7-5.2-16.5-1.1c-0.2,0.1-0.3,0.2-0.5,0.5
		c-2.9,3.5-2.7,16.4,0.4,28.9c3.2,12.5,7,26.5,10,23.1c2.9-3.5-3-15.5-6.1-28c-1.7-6.9-2-14.5-2.3-19.4c3.7,3,11.9,4.8,19.1-0.9
		C708.6,792.5,719.9,766.7,715.5,765.5z"/>
	<path class="st10" d="M485.3,765.5c4.4-1.2,14.2,21.2,21,32c4.6,7.3,13.7-5.2,16.5-1.1c0.2,0.1,0.3,0.2,0.5,0.5
		c2.9,3.5,2.7,16.4-0.4,28.9c-3.2,12.5-7,26.5-10,23.1c-2.9-3.5,3-15.5,6.1-28c1.7-6.9,2-14.5,2.3-19.4c-3.7,3-11.9,4.8-19.1-0.9
		C492.2,792.5,480.9,766.7,485.3,765.5z"/>
</g>
<g class="st2">
	<path class="st11" d="M639.3,202.9c-8.6-0.1-17.6,3.9-26.1,9.5c0,0,0,0-0.1,0.1c-4.4,3.3-8.5,7.1-12.7,10.6
		c-0.2,0.2-0.4,0.5-0.7,0.7c-4.6,4.4-9.3,8.8-13.9,13.2c0,0,0,0,0,0c-1.4,1.6-2.3,2.5-3.3,3.6c-0.5,0.6-1,1.2-1.5,1.8
		c-3.6,4.3-6.7,9-9.9,13.6c-0.6,1.1-1,2.4-1.5,3.6c0,0.1-0.1,0.2-0.1,0.3c0.3,3,2,5.6,4,7.9c5.4,4.6,13.7,9.2,16.6,13.3
		c1.9,2.6,5.8,7.6,3.4,11.2c-2.1,3.2-7.2,0-9.7-1c-6.9-2.8-14.7-7-22.1-10c-2.2-0.9-3.5-0.8-5-0.6c-2.2,1.6-4.7,2.8-6.6,5.1
		c-5.7,7-10.8,14.2-15.6,22c-0.5,0.9-1.3,2.1-1.4,2.3c-0.9,1-1.5,2.1-2.2,3.1c0,0,0,0,0,0c-0.7,1.4-2.2,4.6-3.8,7.9
		c-1,2.7-1.5,5.4-0.5,7.6c4,8.5,21.1,11.8,29,16.7c0.6,0.3,1.1,0.5,1.7,0.7c3,1.4,9.8,5.1,8.1,9.8c-0.6,1.7-2,2.5-3.7,3
		c-3.9,3-9.4-0.4-13.6-2c-1.8-0.3-3.5-0.6-5.2-1.3c-3.4-1.4-8.8-4.4-13.8-6.5c-2.9-1.1-5.8-2-8.6-2.4c-2.6,0-5.1,0.6-7.3,1.6
		c-8.3,13.8-18,27.7-23.8,42.7c-6.5,16.8-18.6,42.6-32.4,54.1c-9.2,7.6-23.7,2.4-33.4,9.2c-7.1,5-11.7,29.9-20,30.5
		c-5.2,0.4-4-6.9-4.1-10c-0.3-7.1,5.5-22.6-3.7-26.6c-6.8-3-18.9-12.6-26.4-6.9c-4.4,3.3-15.6,25.5-20,23.8
		c-9.4-3.7,7.6-27.4-1.7-33.8c-8.9-6.1-42.8-24.6-52.1-15.5c-5,4.9-4.9,16.3-5,22.9l-0.5,0c0.1,1.6,0.2,3.2,0.3,4.7
		c0.7,13.5,2.1,26.5,4.4,40c1,5.8,2.5,14,8.1,16.8c1.8,0.9,6.1-1.9,7.5-2.8c4.5-2.9,24.1-17.8,27.9-7c1.3,3.7-2,5.8-3.9,8.3
		c-6.2,8.1-19.1,8.5-25.9,16.3c-5.2,5.9,5.9,21.9,8.2,27.7c1.6,4.2,4.3,15.1,8.8,17c10.2,4.3,21.1-4.8,29.7-9.4
		c4.3-2.3,8.9-3.8,13.1-6.1c2.8-1.5,14.7-7,17.2-3c3.3,5.3-6.3,10.6-9,13c-7,6.2-15.6,11.2-23.5,16c-4.6,2.8-12,5-14.9,10
		c-0.9,1.5-0.9,3.1-0.6,4.7c4.5,4,8.8,12.9,12,17.1c12.6,16.7,23.4,34.4,38.3,49.3c26.6,26.7,59.3,49.9,93.3,65
		c5,2.2,9.9,3.6,15.2,5.1l0.4,0c13.4,4.7,23.1,8.2,33.6,11c12,2,23.5,1.7,35,3.3c3,0.4,6.1,0.7,9.3,1c0,0,0.1,0,0.1,0
		c16.4-0.2,32.7-0.9,49-2.3c6.2-0.9,12.3-1.9,18.2-3c12.5-2.4,24.8-4.1,36.9-6.9c5.7-1.7,11.4-3.4,17-5.1
		c21.7-8.6,42.1-20.7,61.9-33.3c13-8.3,26.2-17.1,37.3-28c12.1-11.8,27-21.7,37.1-35.6c3.1-4.2,8.9-9.4,14.6-15.1
		c1-1.7,4.1-4.5,4.9-5.3c0.1-0.1,0.1-0.2,0.2-0.3c0.4-0.9,1.2-1.8,1.6-2.2c0.3-0.3,0.6-0.7,0.9-1c0.6-0.8,1.2-1.7,1.7-2.5l-0.1,0
		c0.3-0.6,0.7-1,1.1-1.5c0.4-0.6,0.9-1.3,1.3-1.8c0.7-1.2,1.5-2.5,2.1-3.6l0.3,0.1c1.3-3,2.1-5.9,1.8-8.9
		c-3.1-7.3-17.1-17.2-21.3-20.4c-3.6-2.7-15-16.9-11-22.2c2.6-3.5,10.6,1.7,13.2,3.1c7.3,4,24,18.9,32.5,16.1
		c5-1.7,9.5-11.4,11.6-16.1c5-11.2,10.3-22.2,11.4-34.8c0.1-1.2,0.3-2.7,0.3-4.2c-0.9-2.9-2.6-4.9-5-6.5c-4.8-2.4-11.2-3.2-16-5.4
		c-2.1-1-6.6-3.1-6.4-6.1c0,0,0-0.1,0-0.1c0-0.1-0.1-0.2-0.2-0.3c-1.2-4,6.3-3.7,8.2-3.3c2.3,0.4,4.7,0.9,7.2,1.4
		c6.4,0.2,12.3-0.2,17.6-5.3c2.7-2.6,2.1-12.7,2.3-16.1c0.4-5.7,2-17.1,2.2-27.7c-0.3-2.7-0.5-5.6-0.9-7.5
		c-0.8-4.8-0.9-11.1-4.8-14.3c-2.4-0.8-5.9,0-8,0.2c-8,0.7-16.2,2.2-24.2,2.1c-2.7,0-6.8,0.8-7.9,3.9c-0.5,1.6-0.7,3.2-1,4.9
		c-0.1,0.5-0.1,1-0.2,1.5c-0.5,5.9,0.2,12.2-1.1,17.9c-0.5,2.3-0.8,6.8-3.6,7.3c-0.7,0.1-1.2-0.2-1.8-0.3c-0.1,0-0.2,0-0.2,0
		c-0.4-0.2-0.8-0.3-1.1-0.5c-0.1,0-0.1-0.1-0.2-0.2c-1.9-1.6-3.1-4.5-3.8-6.7c-1.7-5.6-1.8-18.8-7.1-22.3c-2.4-0.1-4.5,0.6-7.1,0.7
		c-5.3,0.2-19.8,1.2-24.1,6c-2.6,12.4,1.4,24.3,0.4,36.8c-0.3,3.6,1.2,8-2.7,10.1c-4.5,2.5-7.7-4.4-9.1-7.4c-1-2.2-1.8-6.8-2.6-11.7
		c-0.9-3.9-1.8-7.8-2.1-12c0-0.5-0.1-1.2-0.1-1.8c-0.6-3.5-1.2-6.4-1.9-6.9c-3.4-2.3-7.1-1.8-10.8-2.8c-13.7-3.7-28.9-6.6-40.1-16.4
		c-9.9-8.7-16.7-19.8-22.9-31.4c-1.9-3.5-3.3-7.7-4.9-11.8c-1.7-2.8-3.3-6-4.5-9.3c-0.1-0.2-0.3-0.4-0.4-0.7l-0.1,0c0,0,0-0.1,0-0.1
		c-0.9-1.4-1.8-2.8-2.9-4.2c-0.4-0.5-0.7-1-1.2-1.5c-0.2-0.1-0.4-0.2-0.6-0.4c-9.8-3.5-19.3,9-29.1,11.6c-3.7,1-12.9,4.9-15.6-0.9
		c-2.8-5.9,6.2-10.3,9.8-12.2c7.8-4,19.6-7.8,25.6-15.5c4.2-8.5,0-15.4-0.9-25.3c0-0.2-0.1-0.5-0.1-0.7c-1.7-5.9-3-12.4-9-13.6
		c-6.2-0.3-14.7,3-19.4,4.4c-4.2,1.3-18.2,6.6-20.9-0.2c-1.5-3.9,4.4-8.4,7-9.8c7.8-4.3,16.3-5,24.6-6.7c1.8-0.8,3.3-1.8,4.4-3.6
		c0.3-4.8-1.7-13.9-2.2-16c-1.6-7.4-5.1-14-7.8-21c-1-2.5-2.1-5.6-3.1-8.5c-0.8-1.5-1.5-3.1-2.1-4.4c-1.8-4.2-4.3-8.1-6.2-12.3
		c-0.2-0.4-0.3-0.9-0.5-1.3c-0.2-0.2-0.4-0.5-0.5-0.7c-1.4-3.2-3.3-5.8-5.5-7.8c0,0-0.1-0.1-0.1-0.1c-0.8-0.8-1.7-1.4-2.6-2
		c-1.2-0.8-2.5-1.4-3.8-2c0,0-0.1-0.1-0.1-0.1c0,0,0,0,0,0c-1.2-0.5-2.5-0.8-3.8-1.1c-0.2,0-0.3-0.1-0.5-0.1c0,0-0.1,0-0.1,0
		c-0.9-0.2-1.9-0.2-2.9-0.3C640.4,203,639.8,202.9,639.3,202.9z"/>
	<path class="st12" d="M632.9,434.4c7.9-0.3,19.6,12.1,26.5,15.4c16.3,7.9,28.8,23.1,38.8,38.1c11.5,17.4,23.3,31.7,28.9,52.5
		c2,7.6,6.7,16.1,6.7,24.1c0,6.9-20.5,13.9-22,27.3c-1.7,15,28,27.2,22.5,38.4c-4,8.4-9.9,15.7-15.1,23.4
		c-9.2,13.3-16.9,27.7-28.8,37.7c-17.9,15-39.9,20.3-62,23.7c-39.1,5.9-77.8,5-112.5-16.1c-27.4-16.6-43.2-44.6-56-73.6
		c-1-2.2-1.8-5.1-2.4-7.4c-5.9-23.4,21.9-9.6,23.5-23.5c1-8.6-17.9-27.1-19.4-38.8c-3.2-23.9,10.2-38.3,19.6-57.1
		c0,0-0.1,0.4-0.1,0.3c0.3-1.8,1.6-3.6,2.6-5.2l0.1,0.1c2.6-3.4,5.1-6.8,7.6-10.3c0.9-1.1,2.3-2.8,2.8-3.4
		c14.2-16.8,30.6-30.1,49.8-40.1c0.5-0.3,1-0.5,1.5-0.8c0.1,0,0.1-0.1,0.2-0.1c4.3-2.5,9.2-4,13.9-5.4c2.3,0.2,4.7,0.5,6.6,1.3
		c2.1,0.9,3.9,2.5,5.8,4c5.1,7.3,8.4,15.8,12.9,23.5c1.7,2.8,3,7.2,5.7,9.4c1.1,1.5,2.3,2.7,4,3c7,1.2,26.5-23.4,30.2-29.1
		C626.8,442.9,630.7,434.5,632.9,434.4z"/>
	<path class="st13" d="M521,546.3c-6.2,0.1,0.8,16.4,0.6,20c-0.7,12.8-7.8,36.2,1.5,47.4c2.5,6.4,14.3,5.2,17.9-0.1
		c2.3-3.5,1.8-10.2,1.5-14.3c-0.5-7.8,0.1-19.3,3.1-26.4c1.1-2.7,3.1-9.6,1-12.3c-6.7-8.2-10.9-2.9-17-5.8
		C526.2,553.3,525.5,546.2,521,546.3z M520.9,548.3c2.8-0.4,5.2,6.7,7.7,8.2c5,3,10-0.2,14.8,4.3c3.5,3.2-1.6,19.9-2.6,25
		c-1.7,8.6,4.3,36.1-12.8,29.1c-2.1-0.9-3-3.2-4.8-4.5c-5.1-11.9-1.8-32.1,0-43c0.8-4.9-2.5-9.1-2.8-13.8
		C520.5,552.8,519.7,548.5,520.9,548.3z M646.2,540.9c-6.4,1.2,0.3,15,0.1,18.8c-0.5,11.4-5.1,27.1-2.2,39.4l-0.1,0
		c-0.1,3.9,3,9.1,6.3,11.9c0.1,0.1,0.1,0.2,0.2,0.2c2.3,4.2,13.5,2.8,16-1.9c4.1-7.8,2.2-17.4,2.5-25.7c0.2-5,1.4-10,2-15
		c0.7-5.2,2.9-11.1-0.6-15.8c-5.6-7.6-10-2.1-16-3.3C650.7,548.9,651.3,539.9,646.2,540.9z M647,543.3c2.5,0.8,3.1,7.8,8,8.9
		c5,1.1,8.5-2.7,13,1.5c4.9,4.6,0.4,16.7-0.4,22.2c-1.3,8.6,3.3,35.9-9.8,35.8c-2.8,0-4.5-2.2-6.9-3.3c-6.7-10-6.2-23.4-4.2-35.1
		c0.6-3.3,1.8-6.8,1.9-10.3c0.2-5.4-1.7-9.8-2.7-14.9C645.9,547.5,645.5,542.8,647,543.3z M603.5,641.6c-10.9,0.5-21.8,2.9-30.9,6.7
		c-6.5,2.7-18.2,8.1-19.5,16.1l0.1,0.1c0,0,0.1-0.1,0.1-0.1c-1.1,3.8,1.1,8.4,5.7,7.2c7.8-2.1,13.8-9.1,20.7-13.1
		c8.1-4.6,16.8-6.2,26-5.5c6.4,0.5,13.9,1.8,19.3,5.5c6,4.1,10.1,9.1,17,11.9c6.5,2.6,12.6-0.5,12.5-7.9c-0.1-9.5-13.1-13-20.1-16
		C625.4,642.5,614.5,641.1,603.5,641.6z"/>
</g>
<g class="st2">
	<path class="st14" d="M29,31.5h7.6l13.7,24.1V31.5H57V66h-7.2L35.7,41.5V66H29V31.5z"/>
	<path class="st14" d="M84.5,62.9c-2.2,2.7-5.4,4-9.8,4s-7.7-1.3-9.8-4c-2.2-2.7-3.2-5.9-3.2-9.6c0-3.7,1.1-6.9,3.2-9.6
		s5.4-4.1,9.8-4.1s7.7,1.4,9.8,4.1s3.2,5.9,3.2,9.6C87.8,57,86.7,60.2,84.5,62.9z M79.2,59.2c1-1.4,1.6-3.4,1.6-5.9
		c0-2.6-0.5-4.5-1.6-5.9s-2.5-2.1-4.5-2.1s-3.5,0.7-4.5,2.1s-1.6,3.4-1.6,5.9c0,2.6,0.5,4.5,1.6,5.9s2.6,2.1,4.5,2.1
		S78.1,60.6,79.2,59.2z"/>
	<path class="st14" d="M113.9,62.9c-2.2,2.7-5.4,4-9.8,4s-7.7-1.3-9.8-4C92.1,60.2,91,57,91,53.3c0-3.7,1.1-6.9,3.2-9.6
		s5.4-4.1,9.8-4.1s7.7,1.4,9.8,4.1s3.2,5.9,3.2,9.6C117.1,57,116,60.2,113.9,62.9z M108.5,59.2c1-1.4,1.6-3.4,1.6-5.9
		c0-2.6-0.5-4.5-1.6-5.9s-2.5-2.1-4.5-2.1s-3.5,0.7-4.5,2.1s-1.6,3.4-1.6,5.9c0,2.6,0.5,4.5,1.6,5.9s2.6,2.1,4.5,2.1
		S107.5,60.6,108.5,59.2z"/>
	<path class="st14" d="M142.5,41.9c1.7,1.4,2.5,3.7,2.5,6.9V66h-6.8V50.5c0-1.3-0.2-2.4-0.5-3.1c-0.7-1.3-1.9-2-3.7-2
		c-2.2,0-3.8,1-4.6,2.9c-0.4,1-0.7,2.3-0.7,3.9V66h-6.7V40.5h6.5v3.7c0.9-1.3,1.7-2.3,2.4-2.8c1.4-1,3.1-1.5,5.2-1.5
		C138.7,39.9,140.8,40.6,142.5,41.9z"/>
	<path class="st14" d="M156.9,55.4c0.2,1.6,0.7,2.8,1.3,3.5c1.2,1.4,3.2,2.1,6.1,2.1c1.7,0,3.2-0.2,4.2-0.6c2.1-0.7,3.1-2.1,3.1-4
		c0-1.1-0.5-2-1.5-2.6c-1-0.6-2.6-1.1-4.8-1.6l-3.7-0.8c-3.7-0.8-6.2-1.7-7.6-2.6c-2.3-1.6-3.5-4.1-3.5-7.5c0-3.1,1.1-5.7,3.4-7.7
		s5.6-3.1,10-3.1c3.7,0,6.8,1,9.4,2.9c2.6,1.9,4,4.7,4.1,8.4h-6.9c-0.1-2.1-1.1-3.6-2.8-4.4c-1.2-0.6-2.6-0.9-4.3-0.9
		c-1.9,0-3.4,0.4-4.6,1.1c-1.1,0.8-1.7,1.8-1.7,3.1c0,1.2,0.6,2.2,1.7,2.8c0.7,0.4,2.3,0.9,4.6,1.4l6.1,1.4c2.7,0.6,4.6,1.5,6,2.5
		c2.1,1.6,3.1,4,3.1,7.1c0,3.2-1.2,5.8-3.7,7.9c-2.4,2.1-5.9,3.1-10.3,3.1c-4.5,0-8.1-1-10.7-3.1s-3.9-4.9-3.9-8.5H156.9z"/>
	<path class="st14" d="M204.5,62.9c-2.2,2.7-5.4,4-9.8,4s-7.7-1.3-9.8-4c-2.2-2.7-3.2-5.9-3.2-9.6c0-3.7,1.1-6.9,3.2-9.6
		s5.4-4.1,9.8-4.1s7.7,1.4,9.8,4.1s3.2,5.9,3.2,9.6C207.8,57,206.7,60.2,204.5,62.9z M199.2,59.2c1-1.4,1.6-3.4,1.6-5.9
		c0-2.6-0.5-4.5-1.6-5.9s-2.5-2.1-4.5-2.1s-3.5,0.7-4.5,2.1s-1.6,3.4-1.6,5.9c0,2.6,0.5,4.5,1.6,5.9s2.6,2.1,4.5,2.1
		S198.1,60.6,199.2,59.2z"/>
	<path class="st14" d="M233.1,41.9c1.7,1.4,2.5,3.7,2.5,6.9V66h-6.8V50.5c0-1.3-0.2-2.4-0.5-3.1c-0.7-1.3-1.9-2-3.7-2
		c-2.2,0-3.8,1-4.6,2.9c-0.4,1-0.7,2.3-0.7,3.9V66h-6.7V40.5h6.5v3.7c0.9-1.3,1.7-2.3,2.4-2.8c1.4-1,3.1-1.5,5.2-1.5
		C229.3,39.9,231.5,40.6,233.1,41.9z"/>
	<path class="st14" d="M254.5,40.4c1.6,0.7,2.9,1.9,3.9,3.7v-3.7h6.5v24.2c0,3.3-0.6,5.8-1.7,7.5c-1.9,2.9-5.6,4.3-11,4.3
		c-3.3,0-5.9-0.6-8-1.9s-3.2-3.2-3.4-5.7h7.3c0.2,0.8,0.5,1.3,0.9,1.7c0.7,0.6,1.9,0.9,3.6,0.9c2.4,0,4-0.8,4.8-2.4
		c0.5-1,0.8-2.8,0.8-5.2v-1.6c-0.6,1.1-1.3,1.9-2.1,2.5c-1.3,1-3.1,1.5-5.2,1.5c-3.3,0-5.9-1.2-7.9-3.5s-2.9-5.4-2.9-9.4
		c0-3.8,0.9-7,2.8-9.6c1.9-2.6,4.6-3.9,8-3.9C252.4,39.9,253.5,40.1,254.5,40.4z M256.8,58.8c1.1-1.2,1.6-3.1,1.6-5.6
		c0-2.4-0.5-4.3-1.5-5.5s-2.4-1.9-4.1-1.9c-2.3,0-3.9,1.1-4.8,3.3c-0.5,1.2-0.7,2.6-0.7,4.3c0,1.5,0.2,2.8,0.7,4
		c0.9,2.2,2.5,3.2,4.9,3.2C254.4,60.5,255.7,59.9,256.8,58.8z"/>
	<path class="st14" d="M285,31.5h7.2v28.3h17.2V66H285V31.5z"/>
	<path class="st14" d="M324.2,31.5h8.2L344.6,66h-7.8l-2.3-7.1h-12.7l-2.3,7.1h-7.6L324.2,31.5z M323.8,53h8.8l-4.4-13.6L323.8,53z"
		/>
	<path class="st14" d="M374.8,35.1c1.1,1.5,1.6,3.2,1.6,5.3c0,2.1-0.5,3.8-1.6,5.1c-0.6,0.7-1.5,1.4-2.6,2c1.8,0.6,3.1,1.7,4,3
		c0.9,1.4,1.3,3.1,1.3,5.1c0,2-0.5,3.9-1.5,5.5c-0.7,1.1-1.5,2-2.4,2.7c-1.1,0.8-2.4,1.4-3.9,1.7s-3.1,0.5-4.9,0.5h-15.6V31.5h16.7
		C370.1,31.5,373,32.8,374.8,35.1z M356,37.5v7.6h8.4c1.5,0,2.7-0.3,3.7-0.9s1.4-1.6,1.4-3c0-1.6-0.6-2.7-1.9-3.2
		c-1.1-0.4-2.4-0.5-4.1-0.5H356z M356,50.8V60h8.4c1.5,0,2.7-0.2,3.5-0.6c1.5-0.8,2.3-2.2,2.3-4.3c0-1.8-0.7-3-2.2-3.7
		c-0.8-0.4-2-0.6-3.5-0.6H356z"/>
	<path class="st14" d="M396.4,59.3c1-2.3,3.2-4.7,6.8-7.2c3.1-2.2,5.1-3.8,6-4.7c1.4-1.5,2.1-3.1,2.1-4.9c0-1.4-0.4-2.6-1.2-3.6
		s-1.9-1.4-3.4-1.4c-2,0-3.4,0.8-4.1,2.3c-0.4,0.9-0.7,2.3-0.8,4.2h-6.5c0.1-2.9,0.6-5.2,1.6-7c1.8-3.4,5-5.1,9.5-5.1
		c3.6,0,6.5,1,8.6,3c2.1,2,3.2,4.6,3.2,7.9c0,2.5-0.8,4.8-2.3,6.7c-1,1.3-2.6,2.7-4.9,4.3l-2.7,1.9c-1.7,1.2-2.8,2-3.4,2.6
		s-1.1,1.1-1.6,1.9h14.8V66h-23.3C394.9,63.6,395.5,61.4,396.4,59.3z"/>
	<path class="st14" d="M442.4,36.4c1.7,3,2.6,7.4,2.6,13s-0.9,9.9-2.6,13s-4.8,4.5-9.1,4.5s-7.4-1.5-9.1-4.5s-2.6-7.4-2.6-13
		s0.9-9.9,2.6-13s4.8-4.6,9.1-4.6S440.7,33.3,442.4,36.4z M429.4,58.3c0.6,2.1,2,3.1,3.9,3.1s3.3-1,3.9-3.1s0.9-5.1,0.9-9
		c0-4.1-0.3-7.1-0.9-9.1s-1.9-3-3.9-3s-3.3,1-3.9,3s-1,5-1,9.1C428.4,53.3,428.7,56.2,429.4,58.3z"/>
	<path class="st14" d="M449.8,59.3c1-2.3,3.2-4.7,6.8-7.2c3.1-2.2,5.1-3.8,6-4.7c1.4-1.5,2.1-3.1,2.1-4.9c0-1.4-0.4-2.6-1.2-3.6
		s-1.9-1.4-3.4-1.4c-2,0-3.4,0.8-4.1,2.3c-0.4,0.9-0.7,2.3-0.8,4.2h-6.5c0.1-2.9,0.6-5.2,1.6-7c1.8-3.4,5-5.1,9.5-5.1
		c3.6,0,6.5,1,8.6,3c2.1,2,3.2,4.6,3.2,7.9c0,2.5-0.8,4.8-2.3,6.7c-1,1.3-2.6,2.7-4.9,4.3l-2.7,1.9c-1.7,1.2-2.8,2-3.4,2.6
		s-1.1,1.1-1.6,1.9h14.8V66h-23.3C448.3,63.6,448.9,61.4,449.8,59.3z"/>
	<path class="st14" d="M495.8,36.4c1.7,3,2.6,7.4,2.6,13s-0.9,9.9-2.6,13s-4.8,4.5-9.1,4.5s-7.4-1.5-9.1-4.5s-2.6-7.4-2.6-13
		s0.9-9.9,2.6-13s4.8-4.6,9.1-4.6S494,33.3,495.8,36.4z M482.7,58.3c0.6,2.1,2,3.1,3.9,3.1s3.3-1,3.9-3.1s0.9-5.1,0.9-9
		c0-4.1-0.3-7.1-0.9-9.1s-1.9-3-3.9-3s-3.3,1-3.9,3s-1,5-1,9.1C481.8,53.3,482.1,56.2,482.7,58.3z"/>
</g>
<g class="st2">
	<path class="st15" d="M337.9,836h524.3c10.7,0,19.4,8.4,19.4,18.8v182c0,10.4-8.7,18.8-19.4,18.8H337.9c-10.7,0-19.4-8.4-19.4-18.8
		v-182C318.5,844.4,327.2,836,337.9,836z"/>
	<path class="st16" d="M337.5,837.6H862c10.5,0,19,8.4,19,18.9v157.8c0,10.4-8.5,18.9-19,18.9H337.5c-10.5,0-19.1-8.4-19.1-18.9
		V856.5C318.4,846.1,326.9,837.6,337.5,837.6z"/>
	<path class="st17" d="M817.8,862.4V899h37.3v-36.6H817.8z"/>
	<path class="st17" d="M766.8,862.3h36.4v35.9h-36.4V862.3z"/>
	<path class="st17" d="M817.4,854.3v0.4h0.2v-0.4H817.4z"/>
	<path class="st17" d="M454.1,863.6h299.1v35H669H454.1V863.6z"/>
	<path class="st17" d="M402,863.9h36.9v35.6H402V863.9z"/>
	<path class="st17" d="M350,863.4v36.5h37.1v-36.5H350z"/>
	<path class="st17" d="M349.3,915.2v36.5H414v-36.5H349.3z"/>
	<path class="st17" d="M402.1,965.7v37.4h39.2v-37.4H402.1z"/>
	<path class="st17" d="M453.7,966h38.1v37.6h-38.1V966z"/>
	<path class="st17" d="M505.6,966h38.3v36.1h-38.3V966z"/>
	<path class="st17" d="M557,966h38.9v36.6H557V966z"/>
	<path class="st17" d="M610.3,966h36.2v36.7h-36.2V966z"/>
	<path class="st17" d="M661.5,966.1h36.8v36.3h-36.8V966.1z"/>
	<path class="st17" d="M765.4,966h38.1v37.1h-38.1V966z"/>
	<path class="st17" d="M818.4,966h36.9v37.1h-36.9V966z"/>
	<path class="st17" d="M792,915h63.8v36.1H792V915z"/>
	<path class="st17" d="M738.9,916h38.6v35.5h-38.6V916z"/>
	<path class="st17" d="M686.4,916h38.2v36h-38.2V916z"/>
	<path class="st17" d="M636.7,916h36.8v35.3h-36.8V916z"/>
	<path class="st17" d="M581.9,916h39.4v35h-39.4V916z"/>
	<path class="st17" d="M531.5,915.4h38.1V952h-38.1V915.4z"/>
	<path class="st17" d="M479.7,915.9h38.4V952h-38.4V915.9z"/>
	<path class="st18" d="M428.2,916h36.7v35.5h-36.7V916z"/>
	<path class="st18" d="M712,966h39.9v36.2H712V966z"/>
	<path class="st19" d="M350.1,964.8v38.1h41.2v-38.1H350.1z"/>
</g>
<g class="st2">
	<path class="st20" d="M163.4,614H176v54.8h-12.6V614z"/>
	<path class="st21" d="M170.8,674.5l39.4-1.1c31.3-0.9,27.2-2.3,30.3,3.9c1.4,2.7,1.1,7.3,1.1,18.9l-5.2,218.6c0,38-9.3,41-47.5,41
		h-28.9c-38.2,0-52.3,6.7-52.3-31.3L97,699.6c0-30.5,0.3-24.1,22.3-25.8C125.6,673.3,145.7,674.1,170.8,674.5z"/>
	<path class="st22" d="M100.3,719.7h137.8c0.6,0,1.1,0.5,1.1,1.1l0,0c0,0.6-0.5,1.1-1.1,1.1H100.3c-0.6,0-1.1-0.5-1.1-1.1l0,0
		C99.2,720.2,99.7,719.7,100.3,719.7z"/>
	<path class="st23" d="M77.1,671.1h188.7c1.2,0,2.2,0.9,2.2,2l0,0c0,1.1-1,2-2.2,2H77.1c-1.2,0-2.2-0.9-2.2-2l0,0
		C74.9,671.9,75.9,671.1,77.1,671.1z"/>
	<path class="st24" d="M139.8,814.3c0-17.3,14.1-31.3,31.4-31.3c17.3,0,31.4,14,31.4,31.3c0,17.3-14.1,31.3-31.4,31.3
		C153.8,845.5,139.8,831.5,139.8,814.3z"/>
	<path class="st25" d="M149.4,809.6l14.8-2.2l6.6-13.4l6.7,13.3l14.8,2.1l-10.7,10.4l2.6,14.7l-13.3-6.9l-13.2,7l2.5-14.7
		L149.4,809.6z"/>
</g>
<g class="st2">
	<polygon class="st14" points="1186,1173 1137,1173 1137,1085 1171.4,1085 	"/>
	<polygon class="st26" points="1151,1169 883.5,1169 906,1089 1167,1089 	"/>
</g>
<g class="st2">
	<path class="st14" d="M931.6,1132c0.1,1.2,0.4,2,0.9,2.5c0.8,0.9,2.4,1.3,4.6,1.3c1.3,0,2.4-0.2,3.1-0.6c0.8-0.4,1.2-1,1.2-1.8
		c0-0.8-0.3-1.3-0.9-1.7s-3-1.1-7-2c-2.9-0.7-4.9-1.6-6.1-2.7c-1.2-1.1-1.8-2.6-1.8-4.6c0-2.4,0.9-4.4,2.8-6.1s4.5-2.5,7.8-2.5
		c3.2,0,5.8,0.6,7.8,1.9s3.2,3.5,3.5,6.6h-6.7c-0.1-0.9-0.3-1.5-0.7-2c-0.7-0.9-2-1.4-3.8-1.4c-1.5,0-2.5,0.2-3.1,0.7
		c-0.6,0.5-0.9,1-0.9,1.6c0,0.8,0.3,1.3,1,1.7c0.7,0.4,3,1,7,1.9c2.7,0.6,4.7,1.6,6,2.8c1.3,1.3,2,2.9,2,4.8c0,2.5-0.9,4.6-2.8,6.2
		s-4.8,2.4-8.7,2.4c-4,0-7-0.8-8.9-2.5s-2.9-3.9-2.9-6.5H931.6z"/>
	<path class="st14" d="M968.4,1123.8c-0.1-1-0.4-1.8-1-2.6c-0.8-1-1.9-1.5-3.5-1.5c-2.3,0-3.8,1.1-4.6,3.4c-0.4,1.2-0.7,2.8-0.7,4.7
		c0,1.9,0.2,3.4,0.7,4.5c0.8,2.1,2.3,3.2,4.5,3.2c1.6,0,2.7-0.4,3.3-1.3s1.1-1.9,1.2-3.3h6.8c-0.2,2-0.9,4-2.2,5.8
		c-2.1,2.9-5.2,4.4-9.3,4.4s-7.1-1.2-9.1-3.7s-2.9-5.6-2.9-9.5c0-4.4,1.1-7.8,3.2-10.2s5.1-3.7,8.9-3.7c3.2,0,5.8,0.7,7.9,2.2
		s3.2,4,3.6,7.6H968.4z"/>
	<path class="st14" d="M1001.1,1137.1c-2.2,2.7-5.4,4-9.8,4s-7.7-1.3-9.8-4c-2.2-2.7-3.2-5.9-3.2-9.6c0-3.7,1.1-6.9,3.2-9.6
		c2.2-2.7,5.4-4.1,9.8-4.1s7.7,1.4,9.8,4.1c2.2,2.7,3.2,5.9,3.2,9.6C1004.3,1131.2,1003.3,1134.4,1001.1,1137.1z M995.8,1133.4
		c1-1.4,1.6-3.4,1.6-5.9s-0.5-4.5-1.6-5.9s-2.5-2.1-4.5-2.1s-3.5,0.7-4.5,2.1s-1.6,3.4-1.6,5.9s0.5,4.5,1.6,5.9s2.6,2.1,4.5,2.1
		S994.7,1134.8,995.8,1133.4z"/>
	<path class="st14" d="M1023.3,1114c0.1,0,0.3,0,0.6,0v6.8c-0.4,0-0.8-0.1-1.1-0.1s-0.6,0-0.8,0c-2.7,0-4.5,0.9-5.4,2.6
		c-0.5,1-0.8,2.5-0.8,4.5v12.2h-6.7v-25.5h6.4v4.5c1-1.7,1.9-2.9,2.7-3.5c1.2-1,2.9-1.6,4.9-1.6
		C1023.1,1114,1023.2,1114,1023.3,1114z"/>
	<path class="st14" d="M1049.3,1117.4c2.1,2.2,3.1,5.4,3.1,9.7c0,4.5-1,7.9-3.1,10.3c-2,2.4-4.7,3.5-7.9,3.5c-2,0-3.7-0.5-5.1-1.5
		c-0.7-0.6-1.5-1.4-2.2-2.5v13.3h-6.6v-35.6h6.4v3.8c0.7-1.1,1.5-2,2.3-2.6c1.5-1.1,3.3-1.7,5.3-1.7
		C1044.7,1114.1,1047.2,1115.2,1049.3,1117.4z M1044.2,1122.2c-0.9-1.5-2.4-2.3-4.4-2.3c-2.4,0-4.1,1.1-5,3.4
		c-0.5,1.2-0.7,2.8-0.7,4.6c0,3,0.8,5.1,2.4,6.3c0.9,0.7,2.1,1.1,3.4,1.1c1.9,0,3.3-0.7,4.3-2.2s1.5-3.4,1.5-5.7
		C1045.5,1125.5,1045.1,1123.7,1044.2,1122.2z"/>
	<path class="st14" d="M1064,1111.6h-6.8v-6.2h6.8V1111.6z M1057.2,1114.6h6.8v25.5h-6.8V1114.6z"/>
	<path class="st14" d="M1091.8,1137.1c-2.2,2.7-5.4,4-9.8,4s-7.7-1.3-9.8-4c-2.2-2.7-3.2-5.9-3.2-9.6c0-3.7,1.1-6.9,3.2-9.6
		c2.2-2.7,5.4-4.1,9.8-4.1s7.7,1.4,9.8,4.1c2.2,2.7,3.2,5.9,3.2,9.6C1095,1131.2,1093.9,1134.4,1091.8,1137.1z M1086.4,1133.4
		c1-1.4,1.6-3.4,1.6-5.9s-0.5-4.5-1.6-5.9s-2.5-2.1-4.5-2.1s-3.5,0.7-4.5,2.1s-1.6,3.4-1.6,5.9s0.5,4.5,1.6,5.9s2.6,2.1,4.5,2.1
		S1085.4,1134.8,1086.4,1133.4z"/>
	<path class="st14" d="M1120.4,1116.1c1.7,1.4,2.5,3.7,2.5,6.9v17.2h-6.8v-15.5c0-1.3-0.2-2.4-0.5-3.1c-0.7-1.3-1.9-2-3.7-2
		c-2.2,0-3.8,1-4.6,2.9c-0.4,1-0.7,2.3-0.7,3.9v13.8h-6.7v-25.5h6.5v3.7c0.9-1.3,1.7-2.3,2.4-2.8c1.4-1,3.1-1.5,5.2-1.5
		C1116.5,1114,1118.7,1114.7,1120.4,1116.1z"/>
</g>
<g class="st2">
	<g class="st14">
		<ellipse class="st28" cx="992.5" cy="193" rx="141.5" ry="127"/>
	</g>
	<polygon class="st25" points="897.5,242.5 844.9,334 992.8,287.6 	"/>
</g>
<g class="st2">
	<g class="st14">
		<path class="st29" d="M163.3,612.3h12.9v55.8h-12.9V612.3z"/>
		<path class="st30" d="M170.8,673.9l40.2-1.1c31.9-1,27.8-2.3,30.9,4c1.4,2.8,1.1,7.5,1.1,19.3l-5.3,222.7
			c0,38.7-9.5,41.7-48.5,41.7h-29.5c-39,0-53.4,6.8-53.4-31.9L95.5,699.5c0-31.1,0.3-24.5,22.8-26.3
			C124.7,672.7,145.2,673.5,170.8,673.9z"/>
		<path class="st31" d="M99.4,779.9l141.8-0.6l-1.8,61H102.2L99.4,779.9z"/>
		<path class="st32" d="M100.2,710.3h140.6c0.6,0,1.2,0.5,1.2,1.1l0,0c0,0.6-0.5,1.1-1.2,1.1H100.2c-0.6,0-1.2-0.5-1.2-1.1l0,0
			C99.1,710.8,99.6,710.3,100.2,710.3z"/>
		<path class="st32" d="M75.2,671.8h192.6c1.2,0,2.2,0.9,2.2,2l0,0c0,1.1-1,2-2.2,2H75.2c-1.2,0-2.2-0.9-2.2-2l0,0
			C72.9,672.7,73.9,671.8,75.2,671.8z"/>
	</g>
	<g class="st14">
		<path class="st33" d="M149.1,806.3v5h17v2.9h-37.4v-2.9h16.8v-5h-12.1v-15.9h3.6v5.3h20.7v-5.3h3.7v15.9H149.1z M133.5,827.4
			v-10.7h3.6v7.8h24.7v2.9H133.5z M157.7,798.4H137v5h20.7V798.4z"/>
		<path class="st33" d="M169.7,809.6v-2.9h16.8v-5.4h3.6v5.4h17v2.9H169.7z M203.5,803.7c-6.9-1.3-13.3-5-15.2-8.8
			c-1.6,3.9-7.8,7.5-14.9,8.8l-1.7-3c6.9-0.7,14.8-4.6,14.8-10.1v-1.3h3.7v1.3c0,5.5,8.7,9.5,14.9,10.1L203.5,803.7z M174.5,828.3
			v-9.2h24.1v-3.3h-24.3v-2.9h27.9v8.8h-24.1v3.6h25.6v2.9H174.5z"/>
	</g>
</g>
<g class="st2">
	<g class="st14">
		<path class="st29" d="M163.3,608h12.9v56.5h-12.9V608z"/>
		<path class="st30" d="M170.8,670.4l40.2-1.1c31.9-1,27.7-2.4,30.9,4c1.4,2.8,1.1,7.6,1.1,19.5l-5.3,225.5
			c0,39.2-9.5,42.2-48.5,42.2h-29.5c-39,0-53.3,6.9-53.3-32.3l-10.8-232c0-31.5,0.3-24.8,22.8-26.6
			C124.7,669.1,145.2,669.9,170.8,670.4z"/>
		<path class="st34" d="M99.3,780.9l141.8-0.6l-1.8,61.8H102.1L99.3,780.9z"/>
		<path class="st32" d="M100.3,707.2h140.6c0.6,0,1.2,0.5,1.2,1.1l0,0c0,0.6-0.5,1.1-1.2,1.1H100.3c-0.6,0-1.2-0.5-1.2-1.1l0,0
			C99.1,707.7,99.6,707.2,100.3,707.2z"/>
		<path class="st32" d="M75.2,668.2h192.5c1.2,0,2.2,0.9,2.2,2l0,0c0,1.1-1,2-2.2,2H75.2c-1.2,0-2.2-0.9-2.2-2l0,0
			C73,669.1,74,668.2,75.2,668.2z"/>
	</g>
	<g class="st14">
		<path class="st33" d="M120.1,822.7v-22.6h14.1v9.5h5V797h3v33.4h-3v-18.2h-5v10.5H120.1z M131.2,802.7h-8.1v17.4h8.1V802.7z
			 M145.9,832.2v-36.1h3v36.1H145.9z"/>
		<path class="st33" d="M154.1,827.3v-2.6h32v2.6H154.1z M158.1,818.6v-11.3H179v-5.7h-21V799h24.1v10.9h-20.9v6.1H183v2.6H158.1z"
			/>
		<path class="st33" d="M208.8,823.6c-3.2-2.2-7.4-6.7-8.8-11c-1.3,4.5-4.9,8.9-9,11.9l-2-2.4c5.2-3.3,9.4-9.9,9.4-16.3v-6.5h3.1
			v6.4c0,6.6,4.3,12.5,9.2,15.5L208.8,823.6z M215.2,832.2v-36.1h3.1v36.1H215.2z"/>
	</g>
</g>
<g>
	<g>
		<path class="st29" d="M162.4,608h12.4v56.5h-12.4V608z"/>
		<path class="st30" d="M169.6,670.4l38.7-1.1c30.7-1,26.7-2.4,29.7,4c1.3,2.8,1.1,7.6,1.1,19.5l-5.1,225.5
			c0,39.2-9.1,42.2-46.6,42.2H159c-37.5,0-51.3,6.9-51.3-32.3l-10.4-232c0-31.5,0.3-24.8,21.9-26.6
			C125.3,669.1,145,669.9,169.6,670.4z"/>
		<path class="st35" d="M101,780.9l136.3-0.6l-1.8,61.8H103.7L101,780.9z"/>
		<path class="st32" d="M101.8,707.2H237c0.6,0,1.1,0.5,1.1,1.1l0,0c0,0.6-0.5,1.1-1.1,1.1H101.8c-0.6,0-1.1-0.5-1.1-1.1l0,0
			C100.7,707.7,101.2,707.2,101.8,707.2z"/>
		<path class="st32" d="M77.7,668.2h185.1c1.2,0,2.1,0.9,2.1,2l0,0c0,1.1-1,2-2.1,2H77.7c-1.2,0-2.1-0.9-2.1-2l0,0
			C75.6,669.1,76.5,668.2,77.7,668.2z"/>
	</g>
	<g>
		<path class="st36" d="M110.7,820.5v-2.3h12.6v-5.4h-9.1v-9.9h18.3v-5.1h-18.4v-2.3h21v9.7h-18.3v5.3h19.2v2.3H126v5.4h12.7v2.3
			H110.7z"/>
		<path class="st36" d="M141.3,820.2v-2.3h27.9v2.3H141.3z M166.7,812.6c-5-1.4-10-5.4-11.5-8.9c-1.2,3.6-6.4,7.5-11.5,8.8l-1.3-2.4
			c4.7-0.8,11.4-5.5,11.4-10.5v-0.8h-10.2v-2.3h23.1v2.3h-10.1v0.8c0,5,6.8,9.7,11.5,10.7L166.7,812.6z"/>
		<path class="st36" d="M173.6,818.6l-1.7-2.1c5.1-2.2,9-5.8,11.2-10.5l-10.5,0.9l-0.6-2.5l11.9-0.7c0.5-1.7,0.8-3.4,0.9-5.3h-11.4
			v-2.3h14.3C187.5,807.6,182,814.4,173.6,818.6z M187.5,807.7v-2.4h7v-12.5h2.7v31.7h-2.7v-16.8H187.5z"/>
		<path class="st36" d="M213,816.4c-3.6,0.1-7.3,0.3-10.1,0.3c-0.1-0.8-0.3-1.6-0.4-2.4c1.5,0,3,0,4.6,0l-1.1-13.1l2.7-0.3l0.9,13.4
			c1.2,0,2.4-0.1,3.6-0.2c0.4,0,0.7,0,1.1,0c0.3-4.4,0.6-8.8,0.9-13.3l2.7,0.3c-0.4,4.2-0.8,8.5-1.1,12.8c2.3-0.1,4.2-0.3,5.6-0.5
			l0.2,2.2C220.3,815.9,216.8,816.2,213,816.4z M203.4,798.5v-2.3h17.3v2.3H203.4z M225,824.5v-31.7h2.7v31.7H225z"/>
	</g>
</g>
</svg>
